<svg xmlns="http://www.w3.org/2000/svg" xmlns:xlink="http://www.w3.org/1999/xlink" preserveAspectRatio="xMidYMid" width="108" height="76.844" viewBox="0 0 108 76.844">
  <defs>
    <style>
      .cls-1 {
        fill: #dc633e;
        fill-rule: evenodd;
      }
    </style>
  </defs>
  <path d="M39.850,65.024 C39.755,65.013 39.660,64.986 39.570,64.947 C39.180,64.776 38.881,64.367 39.117,63.977 C39.652,64.182 40.109,64.454 40.336,64.903 C40.319,64.916 40.302,64.929 40.284,64.940 C40.165,65.014 40.025,65.039 39.882,65.028 C39.871,65.027 39.861,65.026 39.850,65.024 ZM106.504,41.742 C106.174,41.896 105.677,42.064 105.189,42.209 C105.164,42.216 105.139,42.224 105.114,42.231 C105.094,42.237 105.074,42.243 105.054,42.248 C104.834,42.312 104.621,42.369 104.429,42.417 C104.357,42.435 104.289,42.451 104.225,42.466 C101.453,43.116 102.046,43.170 99.397,43.943 C98.889,44.091 98.647,44.495 98.281,44.664 C98.000,44.792 97.698,44.899 97.384,44.993 C97.363,44.999 97.342,45.006 97.321,45.012 C97.307,45.016 97.292,45.020 97.278,45.024 C96.947,45.119 96.604,45.201 96.255,45.280 C95.680,45.410 95.093,45.532 94.533,45.691 C94.503,45.699 94.473,45.707 94.444,45.716 C93.778,45.910 93.144,46.060 92.517,46.211 C91.876,46.368 91.221,46.401 90.661,46.554 C90.496,46.603 90.355,46.693 90.209,46.788 C90.068,46.876 89.923,46.969 89.752,47.019 C89.752,47.019 89.752,47.019 89.751,47.019 C89.737,47.023 89.721,47.027 89.706,47.031 C89.396,47.109 89.066,47.040 88.752,47.111 C88.648,47.135 88.545,47.162 88.442,47.191 C88.407,47.201 88.373,47.211 88.338,47.221 C88.309,47.229 88.280,47.238 88.251,47.247 C88.193,47.264 88.134,47.282 88.076,47.300 C87.930,47.345 87.784,47.391 87.638,47.436 C87.253,47.554 86.892,47.752 86.523,47.933 C86.300,48.044 86.074,48.147 85.839,48.224 C85.808,48.234 85.778,48.244 85.746,48.253 C85.728,48.258 85.710,48.263 85.692,48.268 C84.274,48.652 82.816,48.879 81.378,49.262 C80.496,49.498 79.609,49.743 78.719,49.993 L106.877,41.495 C106.835,41.566 106.699,41.652 106.504,41.742 ZM55.241,57.082 C55.223,57.087 55.204,57.091 55.185,57.096 L55.372,57.040 C55.359,57.044 55.346,57.051 55.333,57.055 C55.303,57.064 55.272,57.073 55.241,57.082 ZM107.991,42.159 C107.930,42.379 106.941,43.313 106.594,43.491 C106.580,43.498 106.566,43.505 106.553,43.512 C106.455,43.560 106.354,43.604 106.249,43.644 C106.179,43.671 106.106,43.695 106.033,43.718 C106.409,43.646 106.665,43.602 106.497,43.651 C106.464,43.661 106.431,43.671 106.398,43.681 C105.787,43.872 105.276,44.223 104.718,44.433 C104.283,44.598 103.848,44.741 103.412,44.869 C103.398,44.873 103.383,44.877 103.369,44.881 C103.324,44.894 103.279,44.907 103.234,44.920 C102.559,45.113 101.881,45.271 101.197,45.422 C100.468,45.583 99.733,45.734 98.988,45.906 C98.372,46.049 97.720,46.155 97.079,46.285 C96.726,46.356 96.378,46.433 96.041,46.528 C96.010,46.537 95.980,46.545 95.949,46.554 C95.939,46.557 95.928,46.560 95.918,46.563 C95.679,46.634 95.446,46.714 95.223,46.807 C94.740,47.009 94.346,47.515 93.825,47.743 C93.801,47.754 93.778,47.763 93.753,47.773 C93.715,47.788 93.676,47.800 93.636,47.813 C93.365,49.076 92.999,50.198 92.447,51.221 C92.111,51.847 91.981,52.592 91.679,53.117 C91.356,53.676 90.753,54.135 90.402,54.712 C90.157,55.114 90.126,55.551 89.725,55.835 C89.550,55.803 89.248,55.546 89.238,55.355 C89.238,55.334 89.238,55.314 89.240,55.294 C89.281,54.894 89.902,54.739 90.027,54.306 C90.038,54.268 90.046,54.228 90.050,54.187 C90.086,53.899 89.991,53.561 90.035,53.224 C90.182,52.101 90.974,50.983 91.170,50.289 C91.771,50.166 92.252,50.178 92.348,49.525 C92.350,49.513 92.351,49.501 92.352,49.490 C92.436,48.750 91.769,48.725 91.714,48.245 C91.712,48.223 91.717,48.186 91.717,48.159 C91.579,48.196 91.440,48.234 91.300,48.273 C91.156,48.314 91.011,48.355 90.866,48.397 C90.856,48.400 90.847,48.403 90.837,48.406 C90.814,48.412 90.791,48.419 90.768,48.426 C90.096,48.623 89.408,48.841 88.716,49.067 C88.285,50.428 87.820,51.762 87.080,52.693 C86.705,52.556 86.603,52.311 86.643,51.992 C86.701,51.527 87.060,50.907 87.309,50.250 C87.410,49.985 87.494,49.710 87.590,49.442 C87.317,49.533 87.043,49.623 86.771,49.714 C86.692,49.741 86.613,49.767 86.534,49.794 C86.526,49.814 86.519,49.836 86.511,49.855 C86.282,50.449 86.064,51.161 85.771,51.513 C85.470,51.870 84.944,51.952 84.651,52.283 C84.386,52.583 84.419,52.898 84.069,53.116 C83.816,52.958 83.637,52.740 83.477,52.504 C83.732,51.796 84.049,51.031 84.374,50.240 C84.163,50.307 83.953,50.383 83.741,50.464 C83.497,50.559 83.248,50.654 82.992,50.729 C82.735,50.804 82.470,50.858 82.191,50.871 C81.815,50.890 81.413,50.755 81.025,50.816 C80.836,50.846 80.644,50.887 80.449,50.935 C80.308,50.970 80.166,51.009 80.023,51.050 C80.012,51.053 80.001,51.056 79.990,51.059 C79.945,51.072 79.902,51.085 79.857,51.099 C79.614,51.172 79.368,51.252 79.121,51.334 C78.695,51.475 78.266,51.621 77.842,51.744 C76.765,52.058 75.763,52.398 74.789,52.721 C74.173,52.925 73.569,53.123 72.965,53.302 C72.914,53.317 72.864,53.332 72.814,53.346 C72.805,53.349 72.797,53.351 72.788,53.354 C72.628,53.400 72.468,53.445 72.308,53.489 C71.500,53.710 70.670,53.883 69.832,54.080 C69.701,54.111 69.570,54.145 69.440,54.181 C69.388,54.195 69.336,54.209 69.284,54.224 C69.259,54.232 69.233,54.239 69.207,54.246 C69.149,54.263 69.091,54.280 69.034,54.298 C68.785,54.374 68.538,54.455 68.293,54.539 C67.992,54.643 67.694,54.751 67.398,54.859 C67.070,54.978 66.745,55.097 66.421,55.208 C66.206,55.282 65.991,55.352 65.777,55.416 C65.741,55.427 65.705,55.437 65.670,55.448 C65.641,55.456 65.613,55.464 65.584,55.472 C65.499,55.497 65.414,55.520 65.328,55.542 C65.215,55.571 65.101,55.599 64.987,55.624 C64.558,55.719 64.112,55.647 63.696,55.738 C63.578,55.765 63.461,55.795 63.345,55.829 C63.043,55.917 62.746,56.027 62.451,56.139 C62.155,56.248 61.860,56.358 61.560,56.446 C61.413,56.489 61.265,56.526 61.115,56.555 C60.718,56.634 60.351,56.639 60.011,56.739 C59.998,56.742 59.985,56.746 59.972,56.750 C59.934,56.762 59.897,56.776 59.859,56.791 C59.503,56.934 59.210,57.222 58.816,57.359 C58.770,57.375 58.724,57.390 58.677,57.404 L58.676,57.404 C58.430,57.476 58.174,57.515 57.917,57.557 C57.655,57.599 57.394,57.641 57.137,57.715 C56.619,57.871 56.123,58.169 55.599,58.362 C54.475,58.776 53.283,59.140 52.073,59.494 C51.992,59.518 51.911,59.542 51.830,59.565 C51.604,59.631 51.377,59.697 51.149,59.763 C50.871,59.844 50.593,59.924 50.316,60.005 C50.266,60.019 50.216,60.034 50.166,60.049 C49.818,60.151 49.469,60.254 49.123,60.359 C48.727,60.479 48.333,60.601 47.942,60.728 C47.696,60.808 47.449,60.884 47.202,60.956 L47.201,60.956 C47.170,60.965 47.139,60.974 47.107,60.983 C46.342,61.204 45.570,61.390 44.774,61.566 C44.565,61.612 44.354,61.658 44.141,61.703 C43.921,61.751 43.693,61.804 43.465,61.862 C43.374,61.886 43.283,61.910 43.192,61.936 C43.147,61.948 43.102,61.961 43.057,61.975 C43.018,61.986 42.980,61.997 42.942,62.008 C42.754,62.065 42.570,62.126 42.393,62.192 C42.320,62.219 42.248,62.247 42.178,62.276 C41.846,62.413 41.565,62.584 41.285,62.732 C41.108,62.825 40.931,62.909 40.742,62.969 C40.726,62.974 40.710,62.978 40.694,62.983 C40.686,62.985 40.678,62.988 40.670,62.990 C40.654,62.994 40.638,62.999 40.622,63.003 C40.581,63.013 40.540,63.022 40.498,63.030 C39.860,63.149 39.521,62.818 39.030,62.931 C39.012,62.936 38.993,62.940 38.975,62.946 C38.963,62.949 38.951,62.953 38.938,62.957 C38.741,63.023 38.586,63.147 38.420,63.273 C38.454,63.305 38.497,63.332 38.524,63.369 C38.544,63.397 38.562,63.426 38.578,63.456 C38.596,63.488 38.611,63.522 38.624,63.557 C38.274,63.837 37.952,64.123 37.885,64.627 C37.878,64.679 37.874,64.734 37.872,64.791 C37.396,64.719 37.091,64.508 36.985,64.144 C37.043,63.902 37.404,64.040 37.449,63.779 C37.451,63.769 37.452,63.758 37.454,63.749 C37.454,63.748 37.453,63.748 37.454,63.747 C37.170,63.850 36.888,63.953 36.594,64.039 C36.585,64.042 36.575,64.045 36.566,64.048 C36.547,64.053 36.528,64.059 36.509,64.064 C36.077,64.189 35.635,64.282 35.195,64.384 C36.677,65.615 38.343,66.784 40.130,67.648 C40.131,67.663 40.131,67.675 40.130,67.687 C40.122,67.755 40.071,67.766 40.008,67.762 C39.998,67.761 39.987,67.760 39.976,67.759 C39.963,67.757 39.950,67.756 39.937,67.754 C39.847,67.743 39.758,67.731 39.746,67.814 C39.744,67.823 39.744,67.833 39.744,67.844 C39.717,68.141 40.252,68.233 40.235,68.433 C40.233,68.454 40.225,68.476 40.210,68.499 C38.714,67.784 37.317,66.834 35.998,65.832 C35.446,65.415 34.893,65.005 34.346,64.591 C34.324,64.596 34.301,64.603 34.279,64.608 C33.820,64.708 33.367,64.806 32.931,64.908 C32.891,64.917 32.851,64.927 32.811,64.936 C32.567,64.995 32.326,65.060 32.085,65.131 L32.085,65.131 C32.023,65.149 31.962,65.167 31.900,65.186 C31.549,65.292 31.203,65.414 30.856,65.533 C31.030,65.711 31.200,65.894 31.380,66.068 C31.384,66.097 31.384,66.122 31.382,66.145 C31.360,66.360 31.093,66.375 31.072,66.528 C31.066,66.571 31.079,66.626 31.124,66.699 C31.127,66.710 31.131,66.721 31.135,66.732 C31.145,66.758 31.156,66.782 31.169,66.803 C31.228,66.905 31.315,66.950 31.415,66.965 L31.427,66.966 C31.546,66.980 31.682,66.954 31.819,66.928 C31.956,66.900 32.092,66.873 32.210,66.887 C32.216,66.888 32.223,66.889 32.229,66.889 C32.236,66.891 32.242,66.892 32.248,66.893 C32.783,67.006 34.163,68.197 34.648,68.562 C35.408,69.140 36.188,69.889 36.919,70.276 C37.473,70.572 38.079,70.789 38.635,71.082 C40.186,71.901 41.968,72.629 43.664,73.485 C43.409,73.748 43.481,74.244 43.305,74.465 C40.994,73.733 38.156,73.412 37.047,71.736 C36.703,71.596 36.143,71.620 36.010,71.313 C36.008,71.294 36.008,71.277 36.010,71.262 C36.046,70.942 36.860,71.144 36.981,70.767 C36.982,70.758 36.983,70.750 36.984,70.742 C37.042,70.227 36.272,70.126 35.764,69.839 C35.411,69.641 35.157,69.286 34.807,69.244 C34.358,69.191 34.193,69.530 33.799,69.606 C33.318,69.269 32.892,68.796 32.436,68.360 C32.011,67.956 31.537,67.375 31.074,67.115 C30.787,66.955 30.450,66.996 30.209,66.771 C29.951,66.533 30.000,66.185 29.855,65.867 C29.343,66.047 28.832,66.230 28.314,66.385 C28.273,66.397 28.233,66.409 28.192,66.421 C25.673,67.155 23.363,68.027 20.871,68.754 C20.071,68.987 19.269,69.033 18.484,69.252 C18.465,69.257 18.445,69.263 18.425,69.269 C18.425,69.269 18.425,69.269 18.425,69.269 C18.057,69.376 17.694,69.503 17.328,69.629 C16.975,69.752 16.617,69.877 16.246,69.985 C16.081,70.033 15.914,70.078 15.743,70.118 C13.805,70.574 15.078,70.285 12.949,70.788 C12.902,70.799 12.852,70.813 12.800,70.828 C12.535,70.905 12.223,71.025 11.908,71.146 C11.888,71.153 11.868,71.161 11.849,71.168 C11.752,71.205 11.654,71.242 11.558,71.278 C11.405,71.335 11.255,71.388 11.113,71.432 C11.078,71.444 11.043,71.454 11.009,71.464 C10.994,71.469 10.978,71.473 10.963,71.477 C10.673,71.558 10.435,71.589 10.304,71.517 C10.295,71.511 10.286,71.506 10.278,71.500 C10.200,71.442 10.147,71.335 10.109,71.200 C9.998,70.812 10.012,70.920 9.921,70.594 C9.917,70.580 9.912,70.566 9.908,70.553 L12.139,69.907 C12.389,69.728 12.656,69.558 12.923,69.480 C12.941,69.475 12.959,69.470 12.977,69.465 L13.008,69.456 C13.123,69.422 13.237,69.388 13.350,69.354 C13.473,69.318 13.593,69.282 13.710,69.248 C15.809,68.636 14.593,68.750 16.505,68.180 C16.931,68.056 17.366,67.963 17.795,67.875 C18.057,67.821 18.317,67.767 18.573,67.706 C18.701,67.675 18.828,67.642 18.955,67.607 C18.980,67.600 19.005,67.593 19.030,67.585 C19.043,67.581 19.057,67.577 19.070,67.573 C19.098,67.565 19.125,67.557 19.151,67.549 C19.218,67.528 19.285,67.506 19.352,67.483 C19.831,67.316 20.147,67.014 20.607,66.852 C20.679,66.827 20.751,66.804 20.823,66.781 C20.883,66.762 20.944,66.743 21.004,66.725 C21.017,66.722 21.029,66.718 21.041,66.714 C21.077,66.704 21.113,66.694 21.149,66.684 C21.507,66.583 21.874,66.500 22.245,66.422 C22.397,66.390 22.549,66.359 22.702,66.328 C22.740,66.320 22.778,66.313 22.815,66.305 C23.076,66.252 23.337,66.200 23.598,66.143 C23.896,66.078 24.194,66.007 24.490,65.925 C24.527,65.914 24.564,65.904 24.600,65.893 C24.720,65.858 24.839,65.821 24.957,65.782 C25.693,65.538 26.437,65.293 27.189,65.049 C29.007,64.459 30.866,63.875 32.754,63.323 C32.782,63.314 32.810,63.306 32.838,63.298 C32.860,63.292 32.881,63.286 32.902,63.280 C34.335,62.862 35.785,62.464 37.245,62.098 C37.492,62.036 37.740,61.975 37.988,61.915 C38.856,61.704 39.724,61.480 40.591,61.246 C41.432,61.018 42.271,60.781 43.111,60.537 C43.138,60.529 43.166,60.521 43.192,60.513 C43.220,60.505 43.247,60.497 43.274,60.489 C44.500,60.131 45.725,59.758 46.950,59.380 C48.312,58.959 49.674,58.532 51.037,58.109 C51.105,58.089 51.173,58.068 51.242,58.048 C51.903,57.855 52.577,57.710 53.248,57.564 C53.898,57.422 54.547,57.280 55.185,57.096 L26.831,65.654 L107.991,42.159 ZM10.968,70.442 C10.990,70.459 11.016,70.473 11.045,70.485 C11.060,70.491 11.076,70.496 11.093,70.501 C11.244,70.544 11.466,70.403 11.724,70.214 L10.968,70.442 ZM57.349,56.269 C57.408,56.249 57.467,56.231 57.527,56.212 C57.550,56.205 57.574,56.198 57.598,56.191 C57.610,56.187 57.622,56.184 57.634,56.180 C57.673,56.169 57.712,56.158 57.752,56.147 C58.066,56.059 58.389,55.985 58.709,55.910 C58.990,55.843 59.269,55.776 59.541,55.696 C60.985,55.275 62.350,54.679 63.784,54.261 C66.738,53.400 69.694,52.605 72.608,51.755 C72.976,51.648 73.344,51.540 73.711,51.433 C75.319,50.964 76.924,50.498 78.519,50.048 C78.586,50.030 78.652,50.012 78.719,49.993 L55.372,57.040 C56.052,56.833 56.669,56.499 57.349,56.269 ZM75.609,28.343 C78.612,30.078 80.600,31.986 81.573,34.066 C82.020,35.063 81.845,35.839 81.050,36.398 C80.190,36.921 79.491,36.724 78.956,35.809 C78.845,35.617 78.751,35.278 78.672,34.796 C78.600,34.536 78.549,34.355 78.520,34.250 C78.152,32.336 77.100,30.475 75.363,28.664 C75.291,28.404 75.372,28.297 75.609,28.343 ZM92.978,37.340 C93.242,36.481 93.575,35.773 93.977,35.211 C93.963,35.159 94.041,35.138 94.211,35.145 C95.659,35.523 96.590,35.850 97.003,36.127 C97.217,36.291 97.233,36.454 97.056,36.617 L79.703,41.483 C79.301,41.650 78.869,41.801 78.402,41.932 L77.860,41.495 C78.133,41.474 78.374,41.435 78.582,41.377 L84.263,39.784 L79.709,23.495 L79.304,22.348 L79.360,22.248 C79.916,22.037 80.848,21.971 82.158,22.052 C82.253,22.193 82.282,22.298 82.246,22.363 C82.260,22.416 82.177,22.523 82.000,22.685 C81.910,22.766 81.847,22.840 81.810,22.906 L86.364,39.195 L88.621,38.562 L83.761,21.182 C83.865,21.153 84.053,21.129 84.328,21.107 C85.498,20.892 86.234,20.825 86.538,20.908 C86.737,21.020 86.781,21.176 86.669,21.375 C86.631,21.442 86.479,21.597 86.211,21.840 L89.567,33.842 C90.077,29.665 90.180,26.331 89.875,23.838 C89.882,23.668 89.973,23.587 90.142,23.595 C91.296,23.721 92.315,23.967 93.202,24.334 C93.335,24.410 93.371,24.539 93.311,24.724 L92.564,25.353 C91.788,29.382 90.891,32.575 89.872,34.933 L90.722,37.973 L92.978,37.340 ZM53.235,32.599 C53.494,32.527 53.735,32.488 53.957,32.481 L58.627,31.172 L57.755,28.054 C59.015,27.758 59.887,27.681 60.376,27.824 C60.441,27.862 60.490,27.932 60.519,28.036 L60.541,28.114 C60.518,28.233 60.384,28.355 60.139,28.478 L60.728,30.583 L63.607,29.775 L62.735,26.658 C63.995,26.361 64.868,26.284 65.356,26.427 C65.422,26.465 65.470,26.536 65.499,26.639 L65.521,26.717 C65.498,26.836 65.364,26.958 65.120,27.082 L65.708,29.186 L68.042,28.531 C68.102,28.347 68.218,28.062 68.391,27.677 C68.608,27.057 68.781,26.672 68.908,26.524 C69.011,26.495 69.114,26.466 69.219,26.437 L69.396,26.471 C70.874,26.953 71.727,27.303 71.955,27.518 C71.999,27.674 71.950,27.801 71.809,27.896 L65.817,29.576 L66.471,31.914 C66.453,32.255 66.064,32.561 65.300,32.830 C64.781,32.976 64.471,32.867 64.369,32.503 L63.716,30.165 L60.837,30.972 L61.490,33.310 C61.473,33.651 61.084,33.958 60.320,34.227 C59.801,34.372 59.491,34.264 59.389,33.900 L58.735,31.561 L55.078,32.587 C54.662,32.704 54.255,32.847 53.855,33.014 L53.235,32.599 ZM68.622,38.707 C68.191,38.772 67.926,38.622 67.825,38.258 L61.755,39.960 L61.864,40.350 C61.729,40.668 61.350,40.914 60.728,41.088 C60.298,41.154 60.033,41.004 59.931,40.639 L58.667,36.119 C59.555,36.095 60.250,36.180 60.753,36.375 L66.355,34.804 C66.625,34.169 66.863,33.821 67.071,33.762 C68.078,33.761 68.853,33.935 69.400,34.286 C69.443,34.442 69.364,34.661 69.163,34.941 L69.969,37.825 C69.745,38.224 69.295,38.518 68.622,38.707 ZM66.953,35.140 L60.883,36.842 L61.624,39.492 L67.694,37.790 L66.953,35.140 ZM60.750,47.470 C60.192,47.681 59.850,47.554 59.719,47.086 L58.652,43.267 L58.194,41.631 C58.335,41.536 59.134,41.592 60.591,41.799 L69.462,39.312 C69.499,39.246 69.555,39.146 69.630,39.012 C69.802,38.628 69.932,38.396 70.022,38.314 L70.100,38.292 C70.086,38.241 70.111,38.234 70.178,38.270 C71.029,38.313 71.864,38.499 72.684,38.828 C72.831,38.955 72.860,39.060 72.771,39.140 L72.413,39.661 L73.428,42.990 C73.388,43.449 72.967,43.847 72.167,44.184 C71.596,44.344 71.238,44.164 71.093,43.645 L70.919,43.021 L61.581,45.640 L61.755,46.263 C61.767,46.708 61.432,47.110 60.750,47.470 ZM70.810,42.632 L69.982,39.670 L60.644,42.289 L61.472,45.250 L70.810,42.632 ZM57.045,38.423 C56.709,39.021 56.252,39.290 55.676,39.227 C55.069,39.061 54.765,38.671 54.761,38.055 C54.866,37.634 55.046,37.275 55.299,36.980 C55.842,36.323 55.984,35.527 55.722,34.592 C55.693,34.488 55.737,34.448 55.856,34.470 C56.150,34.724 56.427,35.011 56.684,35.330 L69.680,31.686 C69.702,31.568 69.763,31.383 69.860,31.131 C69.906,30.895 69.940,30.718 69.963,30.598 C70.000,30.533 70.078,30.511 70.196,30.533 L70.274,30.511 C70.984,30.648 71.955,31.021 73.188,31.627 C73.282,31.769 73.293,31.906 73.219,32.039 C71.847,32.536 70.825,33.382 70.153,34.579 C70.063,34.661 69.971,34.630 69.876,34.489 C69.869,34.268 69.879,33.900 69.904,33.388 C69.966,32.812 69.987,32.386 69.966,32.110 L69.944,32.032 L56.871,35.698 C57.383,36.731 57.441,37.640 57.045,38.423 ZM39.755,53.357 C39.056,53.665 38.646,53.696 38.522,53.451 C37.152,47.951 36.257,44.449 35.836,42.942 L35.770,42.708 C35.395,43.767 34.952,44.786 34.444,45.769 C34.340,45.799 34.274,45.762 34.245,45.657 C34.854,42.237 34.981,38.588 34.625,34.708 C34.596,34.605 34.659,34.531 34.814,34.487 C35.532,34.454 36.542,34.564 37.843,34.815 C37.894,34.800 37.916,34.878 37.908,35.048 L37.930,35.126 C37.893,35.193 37.804,35.275 37.663,35.369 C37.469,35.480 37.335,35.602 37.261,35.734 C37.120,37.231 36.849,38.764 36.449,40.332 C37.101,40.263 37.566,40.328 37.846,40.529 C37.876,40.634 37.827,40.759 37.700,40.906 L37.588,41.106 L40.748,52.406 C40.768,52.680 40.437,52.998 39.755,53.357 ZM42.257,41.897 C41.841,42.014 41.591,41.916 41.504,41.604 L40.283,37.240 C41.001,37.207 41.696,37.293 42.369,37.496 L46.260,36.405 C46.529,35.770 46.768,35.422 46.976,35.363 C47.982,35.362 48.757,35.536 49.304,35.887 C49.348,36.043 49.269,36.262 49.068,36.542 L49.721,38.880 C49.742,39.155 49.403,39.446 48.706,39.753 C48.113,40.032 47.780,40.041 47.707,39.781 L47.555,39.235 L43.197,40.457 L43.371,41.081 C43.289,41.385 42.916,41.657 42.257,41.897 ZM47.424,38.768 L46.857,36.741 L42.500,37.963 L43.066,39.990 L47.424,38.768 ZM43.104,35.020 C42.890,34.857 42.665,34.555 42.431,34.116 C42.176,33.404 41.745,32.964 41.139,32.798 C41.058,32.709 41.062,32.624 41.152,32.542 C43.129,32.212 44.334,32.519 44.766,33.462 C44.977,34.020 44.867,34.526 44.436,34.983 C44.027,35.322 43.582,35.335 43.104,35.020 ZM47.648,34.166 C47.986,33.176 48.255,32.540 48.457,32.258 C48.508,32.244 48.586,32.222 48.691,32.193 C50.257,32.594 51.170,32.955 51.427,33.275 C51.522,33.416 51.500,33.535 51.358,33.630 L39.608,36.925 C39.556,36.940 39.122,37.090 38.307,37.374 L37.765,36.938 C37.972,36.880 38.187,36.848 38.410,36.841 L47.592,34.266 L47.648,34.166 ZM41.152,45.149 C40.787,45.644 40.335,45.827 39.795,45.698 C39.278,45.451 39.025,45.045 39.035,44.482 C39.043,44.312 39.175,44.079 39.428,43.783 C40.023,43.112 40.193,42.421 39.938,41.707 C39.909,41.604 39.953,41.564 40.072,41.586 C40.588,41.833 40.953,42.236 41.164,42.792 L49.880,40.348 C49.882,39.956 50.003,39.586 50.241,39.238 C50.263,39.121 50.334,39.073 50.453,39.095 C51.162,39.232 52.066,39.567 53.167,40.099 C53.233,40.137 53.236,40.248 53.176,40.432 C53.035,40.528 52.750,40.609 52.320,40.672 C52.165,40.716 52.035,40.753 51.931,40.782 L50.671,41.975 C51.439,42.321 51.910,42.609 52.087,42.839 C52.131,42.995 52.100,43.088 51.997,43.116 L48.806,44.011 C48.769,44.078 48.705,44.152 48.616,44.232 C48.452,44.447 48.392,44.632 48.436,44.787 L49.899,49.420 C49.971,49.679 49.706,50.033 49.105,50.483 C48.540,50.865 47.991,51.103 47.459,51.197 C47.406,51.212 47.339,51.174 47.259,51.085 C46.730,50.393 45.935,50.055 44.878,50.071 C44.744,49.996 44.715,49.892 44.791,49.760 C46.226,49.693 47.075,49.426 47.337,48.962 L46.160,44.753 L43.126,45.604 C42.710,45.721 42.277,45.871 41.824,46.053 L41.283,45.617 C41.542,45.544 41.783,45.505 42.005,45.498 L49.398,43.425 C49.503,43.004 49.724,42.493 50.061,41.894 C50.164,41.865 50.242,41.844 50.294,41.829 C50.301,41.659 50.329,41.455 50.375,41.218 C50.353,40.944 50.355,40.748 50.378,40.629 L41.351,43.160 C41.569,43.939 41.503,44.603 41.152,45.149 ZM27.518,42.248 C27.587,41.893 27.845,41.316 28.293,40.518 C28.397,40.489 28.475,40.467 28.527,40.453 C29.450,40.754 30.192,41.107 30.752,41.509 C30.847,41.651 30.851,41.763 30.762,41.843 L28.272,42.541 C28.286,42.594 28.256,42.686 28.181,42.819 C28.129,42.833 28.084,42.875 28.048,42.940 C27.831,43.169 27.757,43.303 27.823,43.339 L29.044,47.704 C28.909,48.023 28.530,48.268 27.908,48.443 C27.477,48.508 27.213,48.358 27.111,47.994 L25.782,43.240 L23.836,43.785 L23.923,44.097 C24.612,46.761 23.560,49.102 20.767,51.117 C20.729,51.184 20.668,51.061 20.580,50.749 C22.197,48.728 22.651,46.555 21.947,44.231 L21.140,41.347 L20.484,39.598 C20.469,39.547 20.513,39.506 20.617,39.477 C21.624,39.475 22.489,39.569 23.213,39.757 C24.276,38.955 25.354,38.009 26.448,36.917 C26.522,36.785 26.625,36.756 26.759,36.830 C27.466,37.361 28.049,37.842 28.505,38.274 C28.571,38.312 28.567,38.397 28.493,38.529 C26.631,39.276 24.789,39.988 22.964,40.668 L23.705,43.317 L27.518,42.248 ZM19.781,59.294 C19.135,59.587 18.742,59.586 18.604,59.288 L17.418,54.746 L17.222,54.045 C17.120,53.682 16.946,53.058 16.699,52.174 C16.589,51.982 16.670,51.875 16.945,51.853 C17.300,51.922 17.879,52.095 18.685,52.374 L18.784,52.430 L27.111,50.095 C27.148,50.029 27.196,49.903 27.257,49.718 C27.444,49.386 27.574,49.153 27.649,49.019 L27.883,48.954 L28.060,48.988 C28.703,49.089 29.368,49.266 30.055,49.521 C30.085,49.626 30.114,49.730 30.143,49.833 C30.045,50.085 29.881,50.299 29.651,50.475 L31.114,55.108 C31.074,55.567 30.680,55.957 29.931,56.280 C29.412,56.425 29.080,56.238 28.935,55.719 L28.695,54.861 L20.135,57.262 L20.440,58.353 C20.528,58.665 20.307,58.979 19.781,59.294 ZM27.453,50.419 L18.893,52.819 L19.416,54.690 L27.976,52.290 L27.453,50.419 ZM28.586,54.472 L28.085,52.679 L19.525,55.080 L20.026,56.872 L28.586,54.472 ZM11.444,44.486 L10.903,44.050 C11.162,43.977 11.403,43.939 11.625,43.931 L13.570,43.386 C13.587,43.045 13.645,42.554 13.745,41.908 C13.792,41.279 13.824,40.793 13.841,40.452 C13.827,40.401 13.916,40.320 14.109,40.209 C14.227,40.233 14.515,40.264 14.974,40.303 C15.773,40.360 16.265,40.417 16.450,40.477 C16.568,40.501 16.597,40.604 16.537,40.789 C16.447,40.871 16.277,41.059 16.023,41.353 C15.962,41.539 15.906,41.835 15.852,42.242 C15.806,42.479 15.771,42.657 15.749,42.775 L17.539,42.273 C17.697,41.838 17.955,41.261 18.314,40.543 C18.389,40.410 18.492,40.381 18.625,40.456 C19.415,40.683 20.125,41.016 20.751,41.456 C20.898,41.583 20.902,41.695 20.761,41.790 L15.703,43.208 C15.596,43.631 15.470,44.282 15.326,45.163 C15.137,45.888 15.009,46.429 14.940,46.784 L16.652,46.304 L15.955,43.810 C17.110,43.542 17.932,43.480 18.420,43.623 C18.538,43.646 18.567,43.750 18.507,43.935 C18.484,44.054 18.390,44.220 18.227,44.433 L18.171,44.533 L18.520,45.780 L18.909,45.671 C18.983,45.539 19.088,45.313 19.223,44.995 C19.433,44.544 19.574,44.253 19.650,44.119 C19.701,44.104 19.753,44.090 19.805,44.075 C20.624,44.406 21.222,44.743 21.598,45.085 C21.693,45.227 21.663,45.319 21.508,45.362 L18.629,46.170 L18.977,47.417 C19.948,47.090 20.801,46.737 21.536,46.363 C21.757,46.358 21.813,46.454 21.701,46.653 C21.211,46.903 20.550,47.341 19.718,47.966 C19.473,48.091 19.306,48.194 19.217,48.274 L19.914,50.768 C19.978,51.199 19.740,51.546 19.198,51.809 C18.590,52.036 18.202,51.950 18.034,51.547 L17.446,49.443 C16.444,50.060 15.429,50.738 14.405,51.473 L14.327,51.494 C14.237,51.576 14.152,51.572 14.072,51.482 C13.800,51.110 13.450,50.564 13.026,49.842 C12.930,49.701 12.979,49.576 13.172,49.465 C13.431,49.392 14.021,49.199 14.940,48.885 C15.896,48.505 16.634,48.242 17.153,48.096 L16.761,46.694 L14.971,47.195 C14.919,47.210 14.863,47.310 14.803,47.495 C14.706,47.747 14.612,47.913 14.523,47.994 C14.485,48.061 14.382,48.090 14.212,48.081 L14.134,48.103 C13.551,47.818 13.033,47.571 12.584,47.361 C12.465,47.339 12.410,47.241 12.419,47.071 L12.397,46.993 C12.486,46.913 12.556,46.864 12.609,46.849 C12.698,46.769 12.806,46.655 12.932,46.506 C13.075,46.019 13.246,45.130 13.446,43.841 L12.746,44.037 C12.330,44.154 11.897,44.304 11.444,44.486 ZM98.221,9.128 C98.206,9.132 98.190,9.137 98.175,9.141 C98.141,9.150 98.105,9.159 98.070,9.168 C97.927,9.204 97.771,9.237 97.611,9.269 C97.511,9.289 97.409,9.308 97.307,9.327 C97.287,9.331 97.266,9.335 97.246,9.339 C96.915,9.400 96.588,9.461 96.322,9.534 C96.270,9.548 96.221,9.563 96.174,9.578 C94.103,10.260 95.393,10.010 93.507,10.633 C93.340,10.688 93.175,10.737 93.010,10.782 C92.638,10.883 92.270,10.964 91.906,11.043 C91.529,11.127 91.155,11.209 90.786,11.309 C90.786,11.309 90.786,11.309 90.786,11.309 C90.766,11.315 90.746,11.320 90.726,11.326 C89.946,11.549 89.239,11.927 88.438,12.146 C85.941,12.827 83.525,13.292 81.002,13.981 C80.962,13.992 80.921,14.003 80.880,14.014 C80.183,14.199 79.475,14.347 78.767,14.500 C78.246,14.613 77.725,14.729 77.209,14.865 C77.146,14.881 77.084,14.898 77.023,14.914 L77.022,14.914 C76.782,14.980 76.542,15.051 76.304,15.128 C76.265,15.140 76.227,15.153 76.188,15.166 C75.764,15.306 75.328,15.459 74.885,15.613 C74.171,15.861 73.439,16.111 72.706,16.313 C72.687,16.319 72.669,16.324 72.650,16.329 C72.640,16.332 72.631,16.334 72.621,16.337 C72.206,16.450 71.791,16.546 71.379,16.618 C71.345,16.624 71.312,16.630 71.279,16.635 C71.248,16.640 71.218,16.645 71.189,16.648 C71.126,16.655 71.066,16.658 71.007,16.658 C70.972,16.658 70.938,16.657 70.905,16.656 C70.861,16.654 70.817,16.651 70.775,16.647 C70.528,16.626 70.304,16.586 70.068,16.641 C70.055,16.644 70.043,16.647 70.030,16.650 C70.012,16.655 69.994,16.660 69.976,16.667 C69.499,16.826 69.382,17.282 68.777,17.513 C68.737,17.529 68.697,17.542 68.657,17.555 C68.642,17.560 68.626,17.564 68.610,17.569 C68.602,17.571 68.594,17.574 68.586,17.576 C68.570,17.580 68.554,17.584 68.538,17.588 C68.346,17.636 68.152,17.657 67.954,17.670 C67.639,17.691 67.311,17.693 66.958,17.749 C66.883,17.761 66.808,17.775 66.731,17.790 C66.547,17.827 66.359,17.871 66.170,17.921 C66.131,17.931 66.093,17.941 66.055,17.952 C66.009,17.964 65.964,17.977 65.919,17.989 C65.829,18.015 65.739,18.042 65.649,18.069 C65.425,18.138 65.204,18.212 64.991,18.286 C64.787,18.358 64.584,18.429 64.382,18.499 C63.613,18.764 62.860,19.008 62.095,19.220 C62.064,19.229 62.032,19.238 62.001,19.246 L62.001,19.246 C61.753,19.314 61.504,19.378 61.252,19.439 C60.854,19.534 60.456,19.636 60.057,19.740 C59.708,19.832 59.358,19.926 59.008,20.021 C58.958,20.034 58.908,20.048 58.859,20.061 C58.581,20.137 58.303,20.214 58.025,20.290 C57.797,20.353 57.570,20.415 57.343,20.477 C57.262,20.499 57.181,20.522 57.100,20.544 C55.886,20.873 54.685,21.185 53.514,21.420 C52.968,21.529 52.393,21.536 51.871,21.673 C51.614,21.743 51.370,21.844 51.125,21.945 C50.885,22.043 50.647,22.143 50.400,22.210 L50.399,22.211 C50.352,22.223 50.306,22.235 50.258,22.245 C49.852,22.334 49.454,22.243 49.077,22.306 C49.037,22.314 48.998,22.322 48.960,22.332 C48.947,22.335 48.934,22.338 48.921,22.342 C48.580,22.435 48.265,22.621 47.886,22.761 C47.743,22.814 47.598,22.860 47.451,22.900 C47.370,22.922 47.288,22.833 47.206,22.699 L56.162,19.978 C56.460,20.210 56.759,20.422 57.062,20.339 C57.131,20.321 57.200,20.303 57.268,20.285 C57.972,20.105 58.677,19.549 59.381,19.000 L76.202,13.889 C76.097,13.809 75.986,13.725 75.878,13.643 C75.758,13.675 75.642,13.701 75.522,13.733 C75.494,13.741 75.465,13.748 75.437,13.756 C75.416,13.762 75.395,13.768 75.374,13.774 C73.938,14.166 72.499,14.584 71.067,15.034 C70.825,15.110 70.582,15.187 70.340,15.265 C69.492,15.539 68.638,15.800 67.778,16.053 C66.946,16.298 66.109,16.534 65.268,16.764 C65.241,16.771 65.213,16.779 65.186,16.786 C65.159,16.794 65.132,16.801 65.104,16.808 C63.876,17.143 62.641,17.465 61.403,17.782 C60.730,17.955 60.055,18.474 59.381,19.000 L56.162,19.978 C55.808,19.703 55.456,19.400 55.105,19.522 C54.460,19.747 53.816,19.972 53.159,20.151 C53.128,20.159 53.098,20.168 53.067,20.176 C52.369,20.364 51.657,20.397 50.946,20.560 C50.886,20.574 50.826,20.589 50.765,20.604 C50.741,20.611 50.717,20.617 50.693,20.623 C50.681,20.627 50.669,20.630 50.657,20.633 C50.618,20.644 50.579,20.655 50.540,20.666 C50.227,20.755 49.914,20.861 49.602,20.963 C49.329,21.053 49.057,21.141 48.785,21.216 C48.079,21.408 47.368,21.556 46.658,21.702 C46.842,21.867 47.025,22.401 47.206,22.699 L44.452,23.536 C44.695,23.031 44.925,22.277 45.173,22.039 L45.526,21.942 C45.414,21.966 45.304,21.997 45.192,22.023 C45.218,22.002 45.242,21.970 45.268,21.961 C45.382,21.922 45.497,21.887 45.613,21.855 C45.916,21.773 46.225,21.712 46.534,21.652 C46.540,21.651 46.546,21.658 46.552,21.658 L75.798,13.582 C73.578,11.895 70.731,9.908 69.718,9.062 C69.721,9.051 69.727,9.042 69.734,9.035 C69.735,9.035 69.735,9.034 69.736,9.033 C69.736,9.033 69.737,9.033 69.737,9.033 C69.750,9.022 69.767,9.018 69.783,9.020 C69.805,9.022 69.826,9.036 69.833,9.055 C69.836,9.061 69.837,9.069 69.836,9.076 C71.055,9.784 74.150,11.765 76.468,13.397 L78.469,12.844 C74.568,9.502 69.833,6.813 63.540,5.352 C63.539,5.346 63.539,5.340 63.539,5.335 C63.543,5.301 63.573,5.299 63.605,5.301 C63.604,5.294 63.604,5.289 63.605,5.283 C63.609,5.248 63.640,5.248 63.672,5.248 C63.722,5.243 63.740,5.195 63.798,5.202 C70.049,6.668 74.774,9.428 78.736,12.770 L82.131,11.833 C82.122,11.832 82.114,11.831 82.106,11.831 L82.093,11.829 C81.581,11.761 80.867,10.851 80.388,10.421 C77.652,7.970 74.369,5.926 70.733,4.280 C69.259,3.613 59.941,1.454 58.366,0.741 C58.408,0.645 58.429,0.560 58.440,0.480 C58.270,0.471 58.160,0.476 58.156,0.507 C58.154,0.516 58.153,0.525 58.150,0.535 C58.043,0.628 57.915,0.657 57.784,0.646 C57.775,0.646 57.767,0.645 57.758,0.644 C57.713,0.638 57.669,0.629 57.624,0.616 C57.492,0.576 57.363,0.506 57.257,0.429 C57.256,0.405 57.255,0.382 57.256,0.361 C57.256,0.339 57.257,0.318 57.259,0.298 C57.265,0.237 57.754,0.290 58.485,0.404 C58.897,-0.234 64.985,1.306 65.051,0.824 C65.062,0.746 65.107,0.657 65.197,0.553 C65.308,0.548 65.411,0.551 65.506,0.563 L65.506,0.563 C65.545,0.567 65.583,0.573 65.620,0.581 C66.257,0.703 66.558,1.176 67.085,1.438 C67.570,1.683 68.129,1.720 68.472,1.964 C68.747,2.164 68.860,2.604 69.153,2.828 C69.622,3.184 70.627,3.565 71.225,3.677 C71.248,3.681 71.271,3.685 71.293,3.688 C71.421,3.703 71.553,3.694 71.689,3.687 C71.828,3.678 71.970,3.670 72.109,3.686 C72.153,3.692 72.195,3.699 72.238,3.710 C72.239,3.710 72.240,3.710 72.241,3.710 C72.251,3.713 72.260,3.715 72.270,3.718 C72.273,3.719 72.277,3.720 72.281,3.721 C72.287,3.723 72.294,3.726 72.302,3.728 C72.308,3.730 72.315,3.732 72.322,3.735 L72.333,3.739 C72.344,3.743 72.354,3.747 72.365,3.751 C72.697,3.892 72.829,4.343 73.113,4.562 C73.544,4.896 74.395,5.229 75.100,5.640 C75.708,5.997 76.433,6.543 77.018,6.771 C77.277,6.872 77.598,6.882 77.838,6.990 C78.473,7.271 78.859,7.856 79.399,8.078 C79.603,8.161 79.861,8.135 80.048,8.214 C80.462,8.391 81.234,9.115 81.587,9.480 C82.234,10.150 82.682,10.933 83.422,11.323 C83.301,11.415 83.152,11.508 82.996,11.594 L91.330,9.292 L87.680,10.401 C87.607,10.417 87.535,10.434 87.463,10.452 C87.402,10.467 87.341,10.483 87.280,10.500 C87.267,10.503 87.255,10.506 87.243,10.510 C87.207,10.519 87.171,10.529 87.135,10.539 C86.778,10.641 86.423,10.762 86.067,10.889 C86.050,10.895 86.033,10.901 86.016,10.907 L82.458,11.988 C82.023,12.091 81.590,12.193 81.150,12.299 C80.400,12.480 79.630,12.689 78.871,12.880 C78.876,12.884 78.882,12.889 78.887,12.893 C78.937,12.936 78.990,12.983 79.042,13.026 L82.458,11.988 C82.781,11.911 83.108,11.833 83.428,11.757 C83.549,11.729 83.669,11.699 83.789,11.666 C83.825,11.656 83.863,11.646 83.899,11.635 C84.193,11.552 84.483,11.457 84.771,11.356 C85.023,11.269 85.272,11.177 85.521,11.086 C85.557,11.073 85.593,11.060 85.629,11.047 C85.758,11.000 85.887,10.953 86.016,10.907 L87.680,10.401 C87.681,10.401 87.682,10.401 87.683,10.401 C88.158,10.298 88.583,10.389 89.077,10.281 C89.146,10.266 89.214,10.249 89.282,10.232 C89.309,10.225 89.336,10.218 89.363,10.211 C89.376,10.207 89.390,10.204 89.404,10.200 C89.429,10.193 89.454,10.186 89.479,10.179 C89.605,10.144 89.730,10.105 89.855,10.064 C90.104,9.983 90.354,9.893 90.605,9.803 C91.016,9.654 91.434,9.506 91.860,9.390 C93.782,8.877 92.631,9.245 94.733,8.671 C94.851,8.639 94.972,8.607 95.095,8.574 C95.208,8.544 95.323,8.513 95.438,8.482 L95.470,8.473 C95.488,8.468 95.505,8.463 95.523,8.458 C96.260,8.256 96.982,8.029 97.234,7.756 C97.246,7.743 97.256,7.731 97.266,7.718 C97.285,7.693 97.300,7.667 97.310,7.641 L91.330,9.292 L98.270,7.184 C98.272,7.197 98.276,7.211 98.280,7.225 C98.370,7.548 98.699,8.063 98.805,8.449 C98.843,8.583 98.853,8.701 98.816,8.791 C98.812,8.800 98.808,8.809 98.803,8.818 C98.728,8.948 98.509,9.046 98.221,9.128 ZM61.421,0.925 C63.363,1.290 65.270,1.673 65.352,1.672 C65.373,1.671 65.394,1.672 65.415,1.675 C65.431,1.677 65.448,1.680 65.465,1.684 C65.597,1.712 63.430,1.281 61.421,0.925 ZM78.590,12.951 C77.916,13.122 77.246,13.287 76.567,13.467 C76.670,13.539 76.776,13.613 76.875,13.684 L78.768,13.109 C78.708,13.057 78.650,13.003 78.590,12.951 ZM43.777,24.095 C43.693,24.121 43.608,24.146 43.523,24.169 C43.495,24.178 43.466,24.185 43.438,24.193 C43.402,24.203 43.366,24.213 43.330,24.222 C43.115,24.279 42.896,24.331 42.674,24.381 C42.398,24.443 42.115,24.501 41.833,24.558 C37.767,25.851 30.147,27.967 29.853,27.967 C29.696,27.967 29.559,27.906 29.440,27.821 L28.657,28.026 C28.754,27.996 28.851,27.967 28.950,27.939 C28.961,27.936 28.972,27.933 28.983,27.930 C29.028,27.918 29.072,27.906 29.117,27.894 C29.220,27.867 29.328,27.842 29.433,27.817 C29.253,27.684 29.129,27.482 29.129,27.242 C29.129,26.841 29.453,26.516 29.853,26.516 C30.240,26.516 43.357,23.445 44.257,23.595 L44.452,23.536 C44.342,23.766 44.229,23.946 44.109,23.987 C44.000,24.025 43.889,24.061 43.777,24.095 ZM27.976,28.262 C27.615,28.412 27.342,28.736 27.012,28.916 C26.796,29.034 26.572,29.110 26.345,29.177 C26.337,29.228 26.330,29.279 26.322,29.330 L24.690,29.798 C24.713,29.706 24.741,29.622 24.765,29.531 C24.749,29.535 24.732,29.537 24.716,29.541 C24.684,29.550 24.652,29.559 24.621,29.569 C24.423,29.629 24.235,29.709 24.048,29.795 C23.977,29.827 23.902,29.854 23.831,29.887 C23.817,29.945 23.799,29.999 23.785,30.057 L22.678,30.375 C22.686,30.341 22.697,30.309 22.705,30.275 C22.642,30.290 22.579,30.305 22.516,30.319 C21.619,30.526 20.719,30.739 19.833,30.958 C19.816,31.043 19.793,31.121 19.776,31.207 L18.503,31.572 C18.522,31.475 18.548,31.375 18.569,31.278 C18.530,31.289 18.488,31.298 18.449,31.309 C18.426,31.315 18.403,31.321 18.380,31.327 C18.370,31.330 18.361,31.333 18.351,31.335 C18.205,31.375 18.060,31.416 17.917,31.456 C17.765,31.500 17.613,31.544 17.464,31.588 C16.867,31.766 16.341,32.108 15.776,32.262 C15.764,32.265 15.753,32.268 15.741,32.271 C15.685,32.286 15.628,32.299 15.570,32.309 C15.545,32.314 15.520,32.318 15.494,32.321 C14.933,32.399 14.337,32.176 13.821,32.256 C13.584,32.294 13.345,32.347 13.104,32.412 C13.094,32.415 13.084,32.418 13.073,32.420 C13.042,32.429 13.012,32.437 12.981,32.446 C12.646,32.541 12.309,32.657 11.972,32.780 C11.360,33.004 10.749,33.254 10.152,33.453 C9.429,33.695 8.725,33.950 8.021,34.193 C7.361,34.421 6.702,34.639 6.028,34.828 C5.983,34.840 5.938,34.853 5.893,34.865 C5.879,34.869 5.865,34.873 5.850,34.876 C5.413,34.995 4.969,35.100 4.514,35.187 C4.359,35.217 4.202,35.237 4.043,35.253 C4.038,35.255 4.032,35.257 4.027,35.259 C3.727,35.382 3.430,35.503 3.137,35.608 C2.975,35.666 2.815,35.719 2.655,35.763 C2.641,35.767 2.626,35.772 2.612,35.776 C2.581,35.784 2.550,35.792 2.519,35.800 C2.426,35.824 2.334,35.844 2.243,35.861 C2.134,35.882 2.025,35.897 1.916,35.907 C1.901,35.909 1.886,35.910 1.871,35.911 C1.483,35.941 0.160,35.666 -0.005,35.511 L18.717,30.622 C18.811,30.209 18.908,29.802 19.014,29.389 C18.892,29.461 18.770,29.534 18.635,29.576 C18.620,29.581 18.605,29.586 18.590,29.590 C18.590,29.590 18.590,29.590 18.590,29.590 C18.418,29.637 18.247,29.634 18.081,29.632 C17.910,29.628 17.743,29.625 17.579,29.670 L19.047,29.263 C19.413,27.848 19.825,26.468 20.216,25.374 C20.522,24.510 21.101,23.619 21.241,22.848 C21.245,22.822 21.249,22.796 21.252,22.771 C21.292,22.430 21.192,22.153 21.224,21.905 C21.228,21.877 21.233,21.850 21.240,21.823 C21.344,21.447 21.918,21.247 22.195,20.914 C22.763,20.231 23.292,18.504 23.984,18.056 C24.282,18.238 24.369,18.523 24.331,18.860 C24.239,19.688 23.387,20.835 23.025,21.554 C21.901,23.776 20.981,26.211 20.295,28.918 L23.338,28.075 C23.874,26.399 24.506,24.822 25.222,23.379 C25.719,22.377 26.321,21.128 26.960,20.457 C26.965,20.437 27.004,20.407 27.046,20.386 C27.056,20.381 27.067,20.376 27.078,20.373 C27.079,20.372 27.079,20.372 27.080,20.372 C27.096,20.367 27.111,20.364 27.123,20.365 C27.131,20.366 27.137,20.369 27.142,20.374 C27.148,20.380 27.151,20.391 27.148,20.405 C27.148,20.409 27.147,20.413 27.146,20.417 C27.191,20.434 27.197,20.485 27.257,20.492 C27.270,20.678 27.265,20.854 27.245,21.023 C27.126,22.057 26.464,22.809 26.029,23.716 C25.422,24.980 24.895,26.331 24.437,27.771 L25.391,27.507 C25.702,26.633 26.037,25.844 26.395,25.205 C26.392,25.210 26.392,25.212 26.394,25.212 C26.405,25.213 26.459,25.174 26.517,25.133 C26.575,25.094 26.635,25.052 26.652,25.054 L26.653,25.054 C26.660,25.054 26.666,25.054 26.671,25.055 C26.684,25.056 26.693,25.062 26.698,25.069 C26.706,25.082 26.706,25.102 26.707,25.122 C26.729,25.809 26.685,26.489 26.618,27.167 L29.715,26.310 C28.761,26.580 27.814,26.853 26.876,27.131 C26.787,27.158 26.702,27.192 26.613,27.220 C26.598,27.375 26.589,27.531 26.570,27.686 C26.533,27.994 26.480,28.300 26.431,28.607 L28.657,28.026 C28.614,28.039 28.570,28.050 28.529,28.064 C28.338,28.124 28.153,28.190 27.976,28.262 ZM22.690,28.535 C22.672,28.540 22.654,28.545 22.636,28.551 C22.605,28.559 22.574,28.567 22.542,28.574 C22.302,28.632 22.057,28.661 21.810,28.684 C21.403,28.722 20.993,28.743 20.605,28.843 C20.501,28.870 20.398,28.896 20.294,28.922 C20.181,29.368 20.083,29.830 19.984,30.291 L22.912,29.526 C23.020,29.131 23.127,28.734 23.246,28.349 C23.060,28.409 22.877,28.480 22.690,28.535 ZM24.371,27.973 C24.243,28.386 24.123,28.811 24.007,29.240 L24.915,29.003 C25.051,28.532 25.193,28.079 25.344,27.647 C25.021,27.760 24.693,27.860 24.371,27.973 ZM13.923,30.929 C13.894,30.937 13.864,30.945 13.835,30.953 C13.275,31.110 12.713,31.313 12.156,31.502 C11.819,31.616 11.484,31.726 11.154,31.817 C11.139,31.822 11.125,31.826 11.110,31.829 C11.090,31.835 11.068,31.841 11.047,31.846 C10.731,31.931 10.420,31.997 10.114,32.035 C9.851,32.066 9.578,31.988 9.279,31.968 L17.573,29.672 C17.018,29.833 16.444,30.145 15.819,30.345 C15.208,30.544 14.590,30.746 13.923,30.929 ZM3.161,33.877 C2.973,33.936 2.762,33.999 2.542,34.059 C2.522,34.065 2.502,34.070 2.482,34.076 C2.457,34.083 2.432,34.089 2.407,34.096 C1.917,34.228 1.406,34.344 1.046,34.385 C0.834,34.410 0.674,34.409 0.602,34.370 L6.044,32.863 C5.370,33.108 4.677,33.376 3.360,33.812 C3.298,33.833 3.231,33.854 3.161,33.877 ZM8.793,32.005 C8.965,31.958 9.124,31.957 9.279,31.968 L6.044,32.863 C6.750,32.607 7.436,32.375 8.793,32.005 ZM17.576,29.670 C17.577,29.670 17.578,29.670 17.579,29.670 L17.573,29.672 C17.574,29.671 17.575,29.671 17.576,29.670 ZM36.470,24.442 C39.110,23.711 41.757,22.939 44.432,22.209 C44.684,22.140 44.938,22.082 45.192,22.023 C45.186,22.028 45.179,22.033 45.173,22.039 L36.470,24.442 ZM34.522,24.980 L36.470,24.442 C36.189,24.520 35.907,24.602 35.627,24.679 C35.259,24.779 34.890,24.880 34.522,24.980 ZM57.643,1.101 C57.523,1.147 57.366,1.178 57.207,1.185 C57.164,1.187 57.120,1.187 57.078,1.185 C57.049,1.183 57.021,1.181 56.993,1.177 C56.912,1.168 56.834,1.150 56.766,1.122 C56.728,1.105 56.692,1.086 56.661,1.063 C56.625,1.038 56.595,1.008 56.571,0.974 C56.571,0.966 56.572,0.958 56.573,0.950 C56.598,0.718 56.841,0.635 57.089,0.657 C57.097,0.658 57.105,0.659 57.114,0.660 C57.123,0.661 57.131,0.662 57.140,0.663 C57.415,0.704 57.678,0.870 57.643,1.101 ZM56.114,4.594 C56.096,4.593 56.076,4.592 56.055,4.589 C56.025,4.586 55.994,4.580 55.962,4.574 C55.961,4.559 55.961,4.544 55.962,4.530 C55.973,4.439 56.045,4.407 56.120,4.413 L56.129,4.414 C56.164,4.418 56.200,4.431 56.229,4.450 C56.247,4.461 56.262,4.474 56.273,4.490 C56.258,4.572 56.195,4.595 56.114,4.594 ZM53.863,1.257 C53.820,1.253 53.777,1.249 53.735,1.244 C53.683,1.237 53.631,1.230 53.582,1.222 C53.269,1.169 52.528,0.833 52.522,0.494 C52.522,0.487 52.522,0.480 52.522,0.473 C52.523,0.459 52.524,0.446 52.525,0.433 C52.564,0.046 53.063,-0.050 53.642,0.014 C53.651,0.014 53.661,0.016 53.670,0.017 C53.703,0.021 53.736,0.025 53.770,0.030 C54.587,0.150 55.502,0.560 55.492,0.907 C55.299,1.221 54.510,1.312 53.863,1.257 ZM50.156,1.597 C49.457,1.724 48.857,1.824 48.367,1.926 C47.245,2.159 45.905,2.406 44.889,2.719 C44.036,2.983 43.045,3.674 42.121,3.655 C42.502,2.490 43.505,2.609 44.760,2.282 C45.919,1.981 46.963,1.597 48.316,1.320 C48.416,1.299 48.511,1.278 48.602,1.255 C49.345,1.073 49.830,0.854 50.682,0.936 C50.712,0.939 50.743,0.942 50.775,0.946 C50.795,0.949 50.815,0.951 50.835,0.954 C50.855,0.956 50.875,0.959 50.895,0.962 C50.987,0.892 51.273,0.747 51.509,0.720 C51.552,0.716 51.594,0.715 51.633,0.719 C51.647,0.721 51.660,0.723 51.673,0.726 C51.795,0.755 51.873,0.849 51.852,1.053 L51.849,1.075 C51.798,1.448 50.591,1.520 50.156,1.597 ZM41.165,4.112 C41.135,4.111 41.105,4.109 41.075,4.105 C40.972,4.093 40.866,4.068 40.761,4.035 C40.694,4.014 40.627,3.990 40.561,3.963 C40.546,3.957 40.532,3.951 40.517,3.945 C40.521,3.926 40.526,3.907 40.532,3.890 C40.606,3.667 40.832,3.632 41.101,3.652 C41.142,3.655 41.185,3.659 41.228,3.664 C41.246,3.666 41.263,3.669 41.281,3.671 C41.334,3.678 41.388,3.686 41.442,3.694 C41.493,3.702 41.545,3.709 41.596,3.716 C41.613,3.718 41.630,3.720 41.647,3.722 C41.703,3.729 41.758,3.734 41.810,3.737 C41.698,4.030 41.451,4.126 41.165,4.112 ZM39.437,4.900 C39.418,4.911 39.399,4.922 39.381,4.934 C39.293,4.989 39.208,5.053 39.123,5.120 C39.066,5.165 39.008,5.211 38.951,5.257 C38.708,5.448 38.465,5.617 38.190,5.594 C38.182,5.594 38.175,5.593 38.168,5.592 C38.161,5.592 38.155,5.590 38.148,5.590 C38.109,5.621 38.068,5.657 38.025,5.695 C38.018,5.701 38.011,5.707 38.004,5.713 C37.727,5.957 37.370,6.288 37.005,6.310 C36.968,6.313 36.932,6.312 36.895,6.307 C36.863,6.304 36.831,6.297 36.799,6.288 C36.743,6.272 36.687,6.246 36.632,6.211 C36.622,6.204 36.612,6.198 36.603,6.191 C36.573,6.170 36.543,6.146 36.514,6.118 C36.723,5.520 37.348,5.445 37.937,5.325 C38.518,4.672 39.333,4.312 40.204,4.028 C40.255,4.061 40.305,4.094 40.311,4.162 C40.312,4.197 40.310,4.229 40.307,4.259 C40.259,4.716 39.765,4.713 39.437,4.900 ZM40.645,9.981 C41.821,9.364 43.119,8.595 44.412,8.260 C45.129,8.075 45.826,7.959 46.529,7.728 C48.430,7.106 50.610,6.563 52.961,6.444 L53.021,6.452 C53.085,6.472 53.110,6.494 53.108,6.516 C53.099,6.611 52.574,6.710 52.443,6.744 C48.317,7.846 44.979,9.914 41.701,12.112 C41.189,12.457 40.710,12.904 40.266,13.025 C39.970,13.107 39.653,13.049 39.351,13.097 C39.256,13.112 39.158,12.271 39.059,12.296 C38.676,12.392 38.270,12.529 37.874,12.496 C37.858,12.494 37.842,12.493 37.826,12.491 C37.735,12.480 37.645,12.460 37.555,12.427 C37.477,12.399 37.399,12.362 37.323,12.313 C37.312,12.306 37.301,12.299 37.290,12.291 C37.562,11.680 38.254,11.331 38.836,10.969 C39.403,10.617 40.046,10.293 40.645,9.981 ZM34.886,12.019 C34.874,12.018 34.862,12.017 34.850,12.016 C34.843,12.015 34.835,12.014 34.828,12.013 C34.806,12.010 34.783,12.006 34.761,12.002 C34.731,11.996 34.701,11.989 34.671,11.981 C34.986,11.178 35.890,10.791 36.556,10.338 C41.324,7.084 47.082,4.747 54.222,4.488 L54.280,4.495 C54.308,4.531 54.319,4.562 54.318,4.588 C54.307,4.751 53.802,4.747 53.583,4.773 C49.185,5.308 45.528,6.373 41.971,7.971 C41.449,8.205 40.947,8.540 40.429,8.749 C40.188,8.847 39.850,8.832 39.618,8.956 C39.294,9.127 39.083,9.498 38.805,9.701 C38.165,10.170 37.472,10.573 36.835,11.032 C36.294,11.424 35.644,12.086 34.886,12.019 ZM34.452,8.221 C33.339,9.012 28.883,14.067 27.811,15.048 C27.758,15.096 27.704,15.149 27.647,15.204 C27.622,15.229 27.596,15.254 27.570,15.278 C27.297,15.541 26.977,15.817 26.615,15.823 C26.584,15.823 26.552,15.822 26.520,15.818 C26.499,15.816 26.478,15.812 26.457,15.808 C26.363,15.788 26.267,15.749 26.167,15.685 C26.129,15.661 26.091,15.633 26.052,15.600 C26.035,15.586 26.017,15.571 26.000,15.556 C25.984,15.454 25.982,15.361 25.991,15.276 C26.067,14.584 30.341,10.089 30.952,9.733 C32.570,8.790 33.955,7.257 35.364,6.645 C35.370,6.643 35.375,6.640 35.381,6.638 C35.458,6.606 35.547,6.578 35.634,6.579 C35.647,6.579 35.661,6.579 35.674,6.581 C35.687,6.582 35.701,6.585 35.714,6.588 C35.807,6.612 35.892,6.682 35.946,6.834 C35.652,7.420 34.998,7.834 34.452,8.221 ZM44.398,74.389 C44.443,74.382 44.491,74.383 44.541,74.389 C44.555,74.390 44.569,74.392 44.583,74.395 C44.639,74.404 44.698,74.419 44.759,74.436 C44.804,74.450 44.850,74.464 44.896,74.478 C44.987,74.506 45.079,74.535 45.169,74.554 C45.199,74.560 45.228,74.564 45.257,74.568 C45.273,74.570 45.289,74.571 45.305,74.572 C45.391,74.577 45.473,74.566 45.545,74.529 C45.562,74.520 45.579,74.510 45.596,74.498 C45.593,74.487 45.591,74.478 45.588,74.468 L45.587,74.467 C45.587,74.466 45.586,74.465 45.586,74.464 C45.537,74.320 45.389,74.273 45.210,74.251 C45.141,74.243 45.067,74.239 44.993,74.234 C44.936,74.231 44.878,74.228 44.822,74.223 C44.804,74.221 44.785,74.219 44.767,74.217 C44.719,74.211 44.672,74.204 44.628,74.194 C44.557,74.176 44.492,74.151 44.438,74.113 C44.393,74.081 44.356,74.040 44.329,73.986 L44.358,73.748 C44.875,73.983 45.498,74.118 46.346,74.284 C48.111,74.631 50.149,75.033 52.027,75.261 L52.065,75.265 C52.158,75.276 52.251,75.286 52.344,75.296 C52.759,75.337 53.173,75.360 53.584,75.376 C53.818,75.385 54.051,75.393 54.282,75.400 C54.693,75.412 55.100,75.423 55.499,75.445 C55.632,75.453 55.764,75.461 55.895,75.472 C55.983,75.478 56.070,75.486 56.157,75.494 C56.243,75.502 56.329,75.512 56.415,75.522 C56.439,75.525 56.464,75.528 56.489,75.531 C56.513,75.534 56.538,75.537 56.562,75.540 C56.709,75.560 56.855,75.583 56.999,75.609 C56.868,76.065 56.867,76.343 56.694,76.656 C56.630,76.644 56.569,76.634 56.508,76.625 C56.484,76.621 56.460,76.618 56.436,76.615 L56.351,76.605 C55.599,76.525 55.051,76.704 54.436,76.796 C54.262,76.822 54.082,76.841 53.891,76.845 C53.832,76.846 53.772,76.846 53.711,76.844 C53.530,76.735 53.715,76.339 53.610,76.171 C53.572,76.147 53.535,76.126 53.498,76.107 C53.409,76.061 53.324,76.031 53.243,76.013 C53.216,76.007 53.190,76.003 53.164,76.000 C53.155,75.999 53.146,75.998 53.138,75.998 C52.764,75.965 52.464,76.192 52.141,76.345 C51.999,76.413 51.852,76.466 51.694,76.477 C51.676,76.478 51.659,76.479 51.642,76.479 C51.480,76.481 51.319,76.475 51.161,76.463 C51.097,76.458 51.034,76.453 50.971,76.446 C50.940,76.443 50.908,76.439 50.877,76.435 C50.794,76.426 50.711,76.414 50.629,76.402 C49.984,76.302 49.370,76.118 48.793,75.925 C48.661,75.881 48.530,75.836 48.401,75.792 C47.855,75.606 47.297,75.178 46.739,75.053 C46.665,75.037 46.590,75.025 46.514,75.016 C46.498,75.014 46.482,75.012 46.467,75.011 C46.229,74.987 45.983,74.990 45.738,74.995 C45.657,74.997 45.576,74.998 45.496,74.998 C45.336,74.999 45.178,74.995 45.025,74.980 C45.009,74.978 44.994,74.977 44.979,74.975 C44.920,74.968 44.862,74.959 44.805,74.947 C44.643,74.915 44.489,74.864 44.347,74.782 C44.272,74.738 44.199,74.686 44.131,74.624 C44.157,74.557 44.189,74.507 44.227,74.471 C44.276,74.423 44.334,74.398 44.398,74.389 ZM56.274,70.528 C55.956,70.527 55.637,70.520 55.316,70.508 C54.549,70.478 53.774,70.416 53.004,70.325 L52.827,70.304 C50.040,69.961 47.308,69.260 45.066,68.447 C45.022,68.431 44.977,68.415 44.932,68.399 C44.292,68.164 43.697,67.762 43.149,67.645 C43.117,67.639 43.082,67.633 43.045,67.629 C42.959,67.618 42.862,67.613 42.760,67.606 C42.685,67.601 42.608,67.596 42.531,67.589 C42.505,67.586 42.479,67.584 42.453,67.581 C42.294,67.562 42.138,67.529 42.003,67.465 C41.953,67.441 41.907,67.412 41.865,67.379 C41.797,67.325 41.740,67.258 41.697,67.173 C41.698,67.166 41.699,67.159 41.700,67.152 L41.701,67.147 C41.702,67.142 41.702,67.136 41.703,67.131 C41.704,67.130 41.704,67.128 41.705,67.126 C41.705,67.122 41.707,67.117 41.708,67.112 C41.708,67.110 41.708,67.108 41.709,67.106 C41.710,67.102 41.711,67.097 41.712,67.093 C41.713,67.091 41.713,67.089 41.714,67.087 C41.715,67.083 41.716,67.079 41.717,67.075 C41.718,67.073 41.718,67.071 41.719,67.069 C41.720,67.065 41.722,67.061 41.723,67.058 C41.723,67.056 41.724,67.054 41.725,67.052 C41.726,67.048 41.727,67.044 41.729,67.041 C41.730,67.039 41.730,67.037 41.731,67.036 C41.733,67.032 41.734,67.027 41.736,67.024 C41.736,67.022 41.737,67.021 41.737,67.020 L41.743,67.007 C41.744,67.007 41.744,67.006 41.745,67.005 C41.747,67.001 41.749,66.996 41.752,66.991 C41.752,66.991 41.752,66.991 41.752,66.991 C41.898,66.725 42.279,66.772 42.614,66.812 C42.733,66.826 42.846,66.840 42.944,66.837 C42.950,66.784 42.954,66.727 42.961,66.672 C42.973,66.569 42.993,66.474 43.054,66.431 C43.264,66.547 43.480,66.661 43.702,66.774 C43.769,66.808 43.835,66.841 43.903,66.875 C43.955,66.901 44.008,66.927 44.061,66.952 C46.708,68.240 50.065,69.259 53.615,69.680 C53.615,69.680 53.615,69.680 53.615,69.680 C53.630,69.682 53.645,69.684 53.660,69.686 C55.061,69.850 56.491,69.921 57.921,69.879 C57.920,69.892 57.919,69.905 57.917,69.918 C57.833,70.734 56.891,70.527 56.274,70.528 ZM43.347,67.007 C43.163,67.262 43.363,67.449 43.628,67.517 C43.666,67.527 43.705,67.534 43.745,67.538 C43.773,67.542 43.801,67.544 43.830,67.545 C43.858,67.545 43.886,67.545 43.913,67.543 C43.969,67.539 44.022,67.529 44.071,67.513 C44.025,67.191 43.735,67.060 43.347,67.007 ZM60.760,71.902 C58.272,72.162 55.722,72.315 52.707,72.091 C52.457,72.072 52.207,72.051 51.957,72.026 C51.740,72.005 51.524,71.981 51.309,71.956 L51.279,71.953 C51.220,71.946 51.161,71.939 51.102,71.931 C47.496,71.484 44.003,70.460 41.489,69.153 C41.423,69.119 41.357,69.085 41.293,69.050 C41.332,68.953 41.401,68.930 41.483,68.940 C41.500,68.942 41.516,68.945 41.534,68.949 C41.586,68.962 41.643,68.984 41.699,69.006 C41.773,69.034 41.847,69.062 41.914,69.070 C41.978,69.078 42.035,69.068 42.079,69.024 C42.088,69.002 42.093,68.982 42.095,68.965 C42.110,68.859 42.034,68.824 42.048,68.720 C42.051,68.702 42.056,68.683 42.064,68.661 C42.994,69.006 43.880,69.387 44.770,69.763 C44.768,69.774 44.765,69.784 44.762,69.794 C44.761,69.795 44.760,69.797 44.760,69.798 C44.725,69.897 44.663,69.919 44.587,69.910 C44.539,69.904 44.485,69.885 44.429,69.867 C44.374,69.849 44.316,69.830 44.262,69.824 C44.209,69.817 44.158,69.822 44.114,69.850 C44.107,69.854 44.101,69.859 44.095,69.863 C44.217,69.907 44.352,69.964 44.494,70.023 C44.826,70.163 45.200,70.322 45.561,70.384 C45.596,70.390 45.630,70.395 45.664,70.399 C45.694,70.402 45.723,70.405 45.752,70.407 C45.957,70.421 46.155,70.396 46.336,70.310 C47.398,70.571 48.379,70.895 49.569,71.055 C49.491,71.065 49.456,71.080 49.455,71.098 C49.451,71.201 50.560,71.405 50.850,71.448 C51.088,71.484 51.328,71.518 51.570,71.551 C51.800,71.582 52.033,71.612 52.266,71.639 L52.303,71.644 C52.376,71.652 52.450,71.661 52.524,71.669 C54.448,71.888 56.441,71.993 58.207,71.908 C58.212,71.908 58.217,71.907 58.223,71.907 C58.361,71.900 58.498,71.892 58.634,71.883 C58.825,71.870 59.013,71.854 59.198,71.836 C60.529,71.709 61.696,71.322 62.759,71.356 C62.325,71.934 61.448,71.830 60.760,71.902 ZM62.332,69.861 C61.563,70.232 60.485,70.210 59.500,70.308 C59.501,70.303 59.502,70.298 59.502,70.293 C59.514,70.195 59.472,70.174 59.477,70.139 C59.480,70.123 59.493,70.103 59.528,70.069 C59.416,70.014 59.302,69.986 59.184,69.972 C59.169,69.970 59.155,69.969 59.140,69.967 C59.125,69.966 59.110,69.965 59.094,69.964 C59.004,69.958 58.911,69.958 58.817,69.958 C58.802,69.958 58.787,69.958 58.772,69.958 C58.666,69.957 58.558,69.955 58.449,69.942 C58.432,69.940 58.415,69.938 58.398,69.935 C59.471,69.521 60.986,69.660 62.098,69.291 C62.145,69.332 62.161,69.362 62.159,69.386 C62.151,69.463 61.950,69.477 61.933,69.591 C61.932,69.603 61.932,69.617 61.935,69.633 C61.914,69.831 62.265,69.735 62.332,69.861 ZM63.628,74.709 C63.976,74.794 63.794,75.296 63.819,75.635 C62.893,75.961 61.890,76.106 60.901,76.314 C60.887,76.317 60.874,76.320 60.860,76.322 C60.841,76.327 60.822,76.331 60.803,76.335 C60.480,76.405 60.151,76.493 59.815,76.569 C59.753,76.584 59.690,76.597 59.627,76.610 C59.149,76.710 58.659,76.776 58.161,76.723 C58.145,76.722 58.130,76.720 58.115,76.718 C58.104,76.717 58.092,76.715 58.081,76.714 C58.046,76.710 58.011,76.704 57.977,76.699 C57.930,76.691 57.884,76.683 57.838,76.673 C57.859,76.260 57.856,75.966 57.793,75.523 C59.733,75.245 61.751,75.069 63.628,74.709 ZM64.020,68.858 C64.863,68.554 65.803,68.286 66.730,67.915 C67.610,67.563 68.439,67.027 69.222,66.766 C69.264,66.752 69.310,66.744 69.360,66.740 C69.430,66.735 69.506,66.739 69.586,66.748 C69.744,66.767 69.919,66.808 70.097,66.850 C70.275,66.891 70.456,66.933 70.627,66.954 C70.718,66.964 70.806,66.969 70.890,66.964 C70.543,67.365 69.930,67.586 69.399,67.809 C67.775,68.499 65.895,69.188 63.996,69.577 C64.061,69.404 64.109,69.298 64.120,69.198 C64.131,69.098 64.105,69.004 64.020,68.858 ZM65.905,70.285 C68.455,69.481 71.049,68.385 73.299,67.008 C73.733,66.744 74.220,66.517 74.662,66.208 C75.324,65.747 75.735,65.198 76.664,65.121 C76.989,64.554 77.321,63.996 77.912,63.763 L77.973,63.770 C78.071,63.933 78.102,64.080 78.086,64.213 C78.021,64.762 77.153,65.078 76.821,65.320 C76.452,65.590 76.141,65.939 75.748,66.215 C74.596,67.029 73.029,67.809 71.897,68.648 C70.004,69.592 67.761,70.484 65.455,71.014 C65.436,71.019 65.415,71.025 65.392,71.031 C65.384,71.034 65.375,71.036 65.367,71.039 C65.227,71.081 65.042,71.144 64.874,71.142 C64.852,71.143 64.831,71.141 64.811,71.139 L64.811,71.139 C64.770,71.134 64.731,71.124 64.694,71.109 C64.643,71.086 64.597,71.052 64.559,71.003 C64.537,70.974 64.518,70.941 64.502,70.901 C64.841,70.492 65.441,70.430 65.905,70.285 ZM68.699,73.205 C69.442,72.916 70.207,72.590 70.923,72.266 C72.568,71.522 74.236,70.684 75.689,69.761 C75.710,69.733 75.736,69.711 75.767,69.696 C75.782,69.688 75.799,69.682 75.817,69.677 C75.859,69.666 75.907,69.664 75.963,69.671 C75.976,69.673 75.989,69.674 76.002,69.677 C76.141,69.827 76.185,69.958 76.168,70.074 C76.121,70.394 75.611,70.600 75.383,70.809 C75.197,70.981 75.111,71.230 74.956,71.359 C74.702,71.570 74.262,71.691 73.866,71.893 C73.473,72.092 73.096,72.422 72.828,72.492 C72.592,72.552 72.334,72.470 72.099,72.525 C71.456,72.679 70.875,73.087 70.253,73.329 C69.923,73.459 69.617,73.540 69.303,73.699 C69.285,73.708 69.267,73.717 69.249,73.727 C68.596,74.062 67.826,74.503 66.881,74.433 C66.842,74.430 66.802,74.426 66.762,74.421 C66.736,74.418 66.709,74.415 66.682,74.411 C66.933,73.524 68.015,73.469 68.699,73.205 ZM77.635,61.461 C77.612,61.489 77.590,61.520 77.570,61.556 C77.529,61.858 77.736,61.966 77.731,62.238 C77.079,62.940 76.495,63.724 75.473,63.957 C75.467,63.764 75.476,63.587 75.497,63.422 C75.669,62.082 76.666,61.601 77.490,60.704 C78.177,59.959 78.670,59.295 79.234,58.744 L79.352,58.758 C79.632,59.107 79.734,59.564 79.688,60.001 C79.620,60.638 79.234,61.231 78.619,61.380 C78.478,61.341 78.342,61.309 78.217,61.294 C78.191,61.291 78.164,61.289 78.139,61.287 C77.978,61.277 77.837,61.301 77.723,61.380 C77.692,61.403 77.663,61.430 77.635,61.461 ZM80.149,62.223 C80.066,62.807 79.534,63.546 78.805,63.485 C78.794,63.484 78.782,63.483 78.771,63.481 C78.765,63.481 78.759,63.480 78.754,63.479 C78.696,63.471 78.637,63.459 78.577,63.440 C78.551,63.432 78.524,63.423 78.498,63.413 C78.796,62.696 79.308,62.252 80.149,62.223 ZM79.847,58.155 C80.059,57.444 80.504,57.028 80.938,56.598 C81.398,56.518 81.858,56.540 82.013,56.184 C82.036,56.132 82.049,56.082 82.055,56.033 C82.093,55.731 81.863,55.459 81.904,55.087 C81.904,55.078 81.905,55.069 81.906,55.060 C81.976,54.497 82.365,54.364 82.638,53.971 C82.786,54.070 82.792,54.330 82.751,54.658 C82.715,54.952 82.642,55.300 82.601,55.637 C82.583,55.785 82.571,55.931 82.570,56.070 C82.570,56.315 82.688,56.662 82.663,56.863 C82.660,56.884 82.656,56.904 82.650,56.921 C82.502,57.371 81.562,57.431 81.333,57.848 C80.966,58.518 81.327,59.252 80.495,59.316 C80.508,59.262 80.518,59.211 80.524,59.163 C80.596,58.592 80.202,58.389 79.847,58.155 ZM81.096,65.970 C81.123,65.970 81.151,65.972 81.180,65.975 L81.180,65.975 C81.248,65.984 81.319,66.001 81.393,66.029 C81.410,66.035 81.428,66.042 81.445,66.049 C81.363,66.471 81.081,66.636 80.811,66.816 C80.307,66.593 80.543,65.966 81.096,65.970 ZM82.557,64.314 C82.747,64.370 82.776,64.551 82.751,64.775 C82.745,64.827 82.736,64.882 82.726,64.937 C82.717,64.938 82.707,64.939 82.698,64.940 C82.554,64.956 82.337,64.975 82.190,64.958 C82.170,64.955 82.150,64.952 82.132,64.948 C82.103,64.941 82.079,64.932 82.062,64.919 C82.120,64.581 82.340,64.451 82.557,64.314 ZM83.638,63.359 C83.633,63.386 83.630,63.413 83.626,63.441 C83.615,63.534 83.608,63.633 83.597,63.726 C83.576,63.903 83.540,64.060 83.425,64.117 C83.416,64.118 83.407,64.118 83.399,64.118 C83.373,64.119 83.349,64.118 83.327,64.115 C83.199,64.100 83.128,64.038 83.017,64.008 C83.019,63.980 83.021,63.954 83.024,63.928 C83.070,63.541 83.257,63.327 83.638,63.359 ZM86.504,60.448 L86.520,60.450 C86.577,60.846 86.633,61.500 86.669,61.732 C86.564,61.757 86.468,61.765 86.380,61.759 C86.367,61.758 86.355,61.757 86.343,61.755 C86.292,61.749 86.243,61.738 86.198,61.724 C86.009,61.660 85.874,61.523 85.798,61.362 C85.747,61.254 85.723,61.135 85.728,61.020 C85.728,60.999 85.730,60.979 85.733,60.958 C85.772,60.654 86.017,60.391 86.504,60.448 ZM89.011,58.279 C89.049,58.352 89.058,58.454 89.047,58.559 C89.027,58.733 88.952,58.914 88.868,58.984 C88.824,58.985 88.783,58.984 88.745,58.981 C88.732,58.980 88.719,58.979 88.707,58.978 C88.676,58.974 88.647,58.969 88.619,58.962 C88.441,58.919 88.342,58.814 88.313,58.655 C88.310,58.643 88.309,58.630 88.307,58.617 C88.415,58.343 88.713,58.311 89.011,58.279 ZM90.439,56.281 C90.445,56.281 90.451,56.282 90.457,56.283 C90.492,56.367 90.498,56.456 90.486,56.543 C90.454,56.768 90.302,56.987 90.180,57.092 C89.767,56.993 89.921,56.506 90.204,56.336 C90.276,56.293 90.357,56.271 90.439,56.281 Z" class="cls-1"/>
</svg>
