<svg xmlns="http://www.w3.org/2000/svg" xmlns:xlink="http://www.w3.org/1999/xlink" preserveAspectRatio="xMidYMid" width="145" height="38" viewBox="0 0 145 38">
  <defs>
    <style>
      .cls-1 {
        fill: #6d6d72;
        fill-rule: evenodd;
      }
    </style>
  </defs>
  <path d="M143.878,12.890 L137.519,12.890 C137.490,13.017 137.462,13.149 137.434,13.283 C137.405,13.418 137.377,13.556 137.349,13.698 C137.914,14.350 138.455,14.999 138.971,15.645 C139.486,16.290 139.985,16.932 140.465,17.570 C140.946,18.194 141.387,18.793 141.790,19.367 C142.193,19.942 142.522,20.435 142.776,20.846 C143.256,21.569 143.553,22.045 143.666,22.271 C143.751,22.413 143.790,22.566 143.783,22.729 C143.776,22.892 143.737,23.044 143.666,23.186 C143.596,23.328 143.497,23.445 143.370,23.537 C143.242,23.629 143.108,23.675 142.967,23.675 C142.613,23.675 142.281,23.399 141.970,22.846 C141.207,21.513 140.409,20.236 139.575,19.016 C138.741,17.797 137.837,16.612 136.861,15.464 C136.536,16.457 136.144,17.400 135.685,18.293 C135.225,19.187 134.685,20.016 134.063,20.782 C132.621,22.541 131.632,23.420 131.095,23.420 C130.925,23.420 130.752,23.342 130.576,23.186 C130.399,23.030 130.311,22.824 130.311,22.569 C130.311,22.257 130.466,21.973 130.777,21.718 L130.756,21.718 C131.519,21.066 132.204,20.371 132.812,19.633 C133.420,18.896 133.928,18.180 134.339,17.485 C134.692,16.818 135.003,16.091 135.271,15.304 C135.540,14.517 135.752,13.712 135.907,12.890 L130.777,12.890 C130.268,12.890 130.014,12.620 130.014,12.081 C130.014,11.542 130.268,11.273 130.777,11.273 L136.098,11.273 C136.183,10.365 136.225,9.231 136.225,7.869 C136.225,7.160 136.494,6.805 137.031,6.805 C137.384,6.805 137.621,6.883 137.741,7.039 C137.861,7.196 137.921,7.479 137.921,7.890 C137.921,8.940 137.858,10.068 137.731,11.273 L143.878,11.273 C144.387,11.273 144.642,11.542 144.642,12.081 C144.642,12.620 144.387,12.890 143.878,12.890 ZM136.437,25.186 L144.239,25.186 C144.748,25.186 145.002,25.455 145.002,25.994 C145.002,26.547 144.748,26.824 144.239,26.824 L136.437,26.824 C135.944,26.824 133.699,26.901 131.348,26.610 C130.388,26.491 129.410,25.812 128.527,25.821 C126.797,25.839 125.429,26.930 125.265,26.930 C125.194,26.888 125.081,26.820 124.926,26.728 C124.770,26.636 124.654,26.519 124.576,26.377 C124.498,26.235 124.498,26.076 124.576,25.898 C124.654,25.721 124.883,25.533 125.265,25.335 C126.042,24.810 126.632,24.260 127.035,23.686 C127.438,23.112 127.639,22.463 127.639,21.739 L127.639,15.655 C127.639,15.457 127.547,15.357 127.364,15.357 L125.413,15.357 C124.919,15.357 124.671,15.116 124.671,14.634 C124.671,14.450 124.682,14.308 124.703,14.209 C124.724,14.110 124.777,14.024 124.862,13.953 C125.003,13.826 125.187,13.762 125.413,13.762 L127.724,13.762 C128.275,13.762 128.664,13.904 128.890,14.187 C129.116,14.471 129.229,14.989 129.229,15.740 L129.229,21.420 C129.250,24.400 129.113,25.186 136.437,25.186 ZM126.901,11.895 C125.910,11.895 125.107,11.095 125.107,10.108 C125.107,9.122 125.910,8.322 126.901,8.322 C127.892,8.322 128.696,9.122 128.696,10.108 C128.696,11.095 127.892,11.895 126.901,11.895 ZM126.696,32.186 C127.964,32.211 128.746,32.783 129.039,33.901 L128.453,33.901 C128.184,33.025 127.611,32.588 126.732,32.588 C125.511,32.637 124.889,33.451 124.865,35.033 C124.914,36.566 125.609,37.369 126.952,37.442 C127.904,37.417 128.611,36.943 129.075,36.018 L129.075,36.675 C128.611,37.478 127.831,37.867 126.732,37.843 C125.121,37.794 124.291,36.870 124.243,35.069 C124.291,33.221 125.109,32.259 126.696,32.186 ZM122.126,36.420 L123.005,36.420 L123.005,37.259 L122.126,37.259 L122.126,36.420 ZM122.169,26.824 L114.368,26.824 C113.875,26.824 111.629,26.901 109.278,26.610 C108.318,26.491 107.340,25.812 106.457,25.821 C104.727,25.839 103.359,26.930 103.195,26.930 C103.124,26.888 103.012,26.820 102.856,26.728 C102.700,26.636 102.584,26.519 102.506,26.377 C102.429,26.235 102.429,26.076 102.506,25.898 C102.584,25.721 102.814,25.533 103.195,25.335 C103.972,24.810 104.563,24.260 104.966,23.686 C105.368,23.112 105.570,22.463 105.570,21.739 L105.570,15.655 C105.570,15.457 105.478,15.357 105.294,15.357 L103.344,15.357 C102.849,15.357 102.602,15.116 102.602,14.634 C102.602,14.450 102.612,14.308 102.634,14.209 C102.655,14.110 102.708,14.024 102.793,13.953 C102.934,13.826 103.118,13.762 103.344,13.762 L105.655,13.762 C106.206,13.762 106.594,13.904 106.821,14.187 C107.046,14.471 107.160,14.989 107.160,15.740 L107.160,21.420 C107.180,24.400 107.043,25.186 114.368,25.186 L122.169,25.186 C122.678,25.186 122.932,25.455 122.932,25.994 C122.932,26.547 122.678,26.824 122.169,26.824 ZM121.809,12.890 L115.449,12.890 C115.420,13.017 115.392,13.149 115.364,13.283 C115.336,13.418 115.307,13.556 115.279,13.698 C115.844,14.350 116.385,14.999 116.901,15.645 C117.417,16.290 117.915,16.932 118.396,17.570 C118.876,18.194 119.318,18.793 119.721,19.367 C120.123,19.942 120.452,20.435 120.706,20.846 C121.187,21.569 121.483,22.045 121.597,22.271 C121.682,22.413 121.720,22.566 121.713,22.729 C121.706,22.892 121.667,23.044 121.597,23.186 C121.526,23.328 121.427,23.445 121.300,23.537 C121.173,23.629 121.038,23.675 120.897,23.675 C120.544,23.675 120.211,23.399 119.901,22.846 C119.138,21.513 118.339,20.236 117.505,19.016 C116.671,17.797 115.767,16.612 114.792,15.464 C114.466,16.457 114.074,17.400 113.615,18.293 C113.156,19.187 112.615,20.016 111.993,20.782 C110.552,22.541 109.562,23.420 109.025,23.420 C108.856,23.420 108.682,23.342 108.506,23.186 C108.329,23.030 108.241,22.824 108.241,22.569 C108.241,22.257 108.396,21.973 108.707,21.718 L108.686,21.718 C109.449,21.066 110.135,20.371 110.742,19.633 C111.350,18.896 111.859,18.180 112.269,17.485 C112.622,16.818 112.933,16.091 113.202,15.304 C113.470,14.517 113.682,13.712 113.838,12.890 L108.707,12.890 C108.199,12.890 107.944,12.620 107.944,12.081 C107.944,11.542 108.199,11.273 108.707,11.273 L114.028,11.273 C114.113,10.365 114.156,9.231 114.156,7.869 C114.156,7.160 114.424,6.805 114.961,6.805 C115.314,6.805 115.551,6.883 115.671,7.039 C115.791,7.196 115.852,7.479 115.852,7.890 C115.852,8.940 115.788,10.068 115.661,11.273 L121.809,11.273 C122.318,11.273 122.572,11.542 122.572,12.081 C122.572,12.620 122.318,12.890 121.809,12.890 ZM104.830,11.895 C103.842,11.895 103.041,11.095 103.041,10.108 C103.041,9.122 103.842,8.322 104.830,8.322 C105.819,8.322 106.620,9.122 106.620,10.108 C106.620,11.095 105.819,11.895 104.830,11.895 ZM97.296,34.996 C97.320,33.148 98.235,32.199 100.042,32.150 L101.580,32.150 L101.580,29.558 L102.165,29.558 L102.165,37.806 L100.078,37.806 C98.248,37.782 97.320,36.846 97.296,34.996 ZM101.580,37.405 L101.580,32.551 L100.261,32.551 C98.748,32.600 97.979,33.415 97.955,34.996 C97.955,36.627 98.724,37.429 100.261,37.405 L101.580,37.405 ZM100.174,24.388 C99.828,25.629 99.231,26.434 98.383,26.803 C97.535,27.171 96.652,27.356 95.733,27.356 C94.786,27.356 93.825,27.185 92.850,26.845 C91.748,26.462 91.196,26.051 91.196,25.611 C91.196,25.285 91.330,25.051 91.599,24.909 C91.867,24.767 92.235,24.782 92.702,24.952 L92.680,24.952 C93.627,25.462 94.623,25.718 95.669,25.718 C96.984,25.718 97.874,25.349 98.341,24.611 C98.835,23.789 99.083,21.832 99.083,18.740 C99.083,18.442 99.054,18.233 98.998,18.112 C98.941,17.992 98.821,17.931 98.637,17.931 L86.660,17.931 C85.868,17.931 85.313,17.818 84.995,17.591 C84.677,17.364 84.518,16.939 84.518,16.315 C84.518,16.244 84.518,16.159 84.518,16.059 C84.518,15.960 84.525,15.875 84.540,15.804 C84.624,14.967 84.716,14.110 84.815,13.230 C84.914,12.351 85.006,11.493 85.091,10.656 C85.119,10.415 85.172,10.220 85.250,10.071 C85.327,9.922 85.472,9.834 85.684,9.805 L83.840,9.805 C83.289,9.805 83.013,9.543 83.013,9.018 C83.013,8.493 83.282,8.231 83.819,8.231 L96.305,8.231 C96.729,8.217 97.058,8.270 97.291,8.390 C97.524,8.511 97.701,8.667 97.821,8.858 C97.941,9.050 98.012,9.262 98.033,9.496 C98.054,9.730 98.058,9.940 98.044,10.124 L98.044,10.401 L97.577,16.357 L98.489,16.357 C99.252,16.357 99.796,16.499 100.121,16.783 L100.079,16.761 C100.489,17.059 100.694,17.825 100.694,19.059 C100.694,21.371 100.521,23.147 100.174,24.388 ZM96.369,9.879 C96.327,9.830 96.263,9.805 96.178,9.805 L86.130,9.805 C86.370,9.834 86.532,9.933 86.617,10.103 C86.702,10.273 86.730,10.486 86.702,10.741 C86.603,11.621 86.508,12.503 86.416,13.390 C86.324,14.276 86.228,15.159 86.130,16.038 C86.101,16.251 86.221,16.357 86.490,16.357 L95.966,16.357 C96.037,15.336 96.115,14.283 96.199,13.198 C96.284,12.113 96.362,11.060 96.433,10.039 C96.433,9.982 96.411,9.929 96.369,9.879 ZM97.705,21.293 C97.832,21.449 97.895,21.640 97.895,21.867 C97.895,22.122 97.821,22.324 97.673,22.473 C97.524,22.622 97.309,22.697 97.026,22.697 L82.292,22.697 C81.769,22.697 81.508,22.449 81.508,21.952 C81.508,21.654 81.568,21.431 81.688,21.282 C81.808,21.133 82.010,21.059 82.292,21.059 L97.111,21.059 C97.379,21.059 97.577,21.137 97.705,21.293 ZM78.279,37.843 C76.619,37.745 75.741,36.834 75.643,35.106 C75.717,33.184 76.632,32.199 78.389,32.150 C80.000,32.247 80.854,33.196 80.952,34.996 C80.927,36.870 80.037,37.818 78.279,37.843 ZM78.316,32.551 C76.998,32.600 76.314,33.439 76.266,35.069 C76.314,36.554 76.998,37.344 78.316,37.442 C79.609,37.369 80.280,36.566 80.330,35.033 C80.256,33.476 79.585,32.649 78.316,32.551 ZM78.900,23.463 C78.462,23.463 78.165,23.094 78.010,22.356 C77.741,20.995 77.317,19.265 76.738,17.166 C76.455,16.116 76.176,15.163 75.901,14.304 C75.625,13.446 75.367,12.670 75.127,11.975 L75.127,11.996 C74.986,11.642 74.982,11.330 75.116,11.060 C75.250,10.791 75.487,10.656 75.827,10.656 C76.095,10.656 76.314,10.784 76.484,11.039 C76.540,11.124 76.646,11.386 76.802,11.826 C76.957,12.266 77.155,12.861 77.395,13.613 C77.635,14.350 77.879,15.173 78.127,16.081 C78.374,16.988 78.639,17.974 78.922,19.038 C79.487,21.208 79.770,22.406 79.770,22.633 C79.770,23.186 79.480,23.463 78.900,23.463 ZM69.463,36.201 C69.487,34.936 70.378,34.303 72.136,34.303 L73.783,34.303 C73.759,33.111 73.198,32.527 72.099,32.551 C71.098,32.527 70.452,32.952 70.159,33.828 L69.573,33.828 C69.866,32.685 70.720,32.126 72.136,32.150 C73.624,32.150 74.369,32.795 74.369,34.084 L74.369,37.843 L71.843,37.843 C70.305,37.818 69.512,37.271 69.463,36.201 ZM73.783,37.442 L73.783,34.704 L72.099,34.704 C70.781,34.704 70.122,35.179 70.122,36.128 C70.122,37.004 70.720,37.442 71.916,37.442 L73.783,37.442 ZM68.958,26.803 C68.675,26.803 68.354,26.781 67.993,26.739 C67.633,26.696 67.241,26.618 66.817,26.505 C66.393,26.391 66.050,26.303 65.788,26.239 C65.527,26.175 65.354,26.114 65.269,26.058 C64.944,25.888 64.781,25.639 64.781,25.313 C64.781,24.774 65.057,24.505 65.608,24.505 C65.792,24.505 65.961,24.533 66.117,24.590 L66.096,24.590 C67.410,25.001 68.336,25.207 68.873,25.207 C69.339,25.207 69.650,25.122 69.806,24.952 C69.961,24.795 70.039,24.427 70.039,23.845 L70.039,8.231 C70.039,7.635 70.322,7.337 70.887,7.337 C71.452,7.337 71.735,7.635 71.735,8.231 L71.735,24.250 C71.735,25.952 70.809,26.803 68.958,26.803 ZM65.926,13.719 C65.728,14.797 65.410,16.003 64.972,17.336 L64.972,17.315 C64.774,17.953 64.576,18.541 64.379,19.080 C64.181,19.619 63.983,20.101 63.785,20.527 C63.417,21.364 63.114,21.977 62.874,22.367 C62.633,22.757 62.357,22.952 62.047,22.952 C61.920,22.952 61.789,22.927 61.655,22.878 C61.520,22.828 61.414,22.739 61.337,22.612 C61.259,22.484 61.231,22.314 61.252,22.101 C61.273,21.888 61.375,21.619 61.559,21.293 C62.153,20.328 62.739,18.939 63.319,17.123 C63.601,16.230 63.849,15.333 64.061,14.432 C64.273,13.531 64.442,12.620 64.569,11.698 C64.668,10.961 64.965,10.592 65.460,10.592 C65.983,10.592 66.244,10.897 66.244,11.507 C66.244,11.932 66.138,12.677 65.926,13.741 L65.926,13.719 ZM53.833,9.646 C54.321,9.319 54.846,8.662 54.846,8.662 C54.846,8.662 52.771,16.303 46.298,15.709 C41.193,15.016 38.880,11.818 34.597,9.257 C32.508,7.905 31.646,8.049 31.646,8.049 C31.646,8.049 34.144,7.336 37.446,8.355 C46.627,11.532 49.961,4.679 49.961,4.679 C49.961,4.679 49.924,5.895 49.204,7.340 C48.554,8.646 47.963,9.220 47.963,9.220 C47.963,9.220 49.011,8.778 50.520,7.037 C52.063,5.255 52.681,3.147 52.681,3.147 C52.681,3.147 53.153,4.420 53.153,5.546 C53.153,6.558 52.709,8.049 52.709,8.049 C52.709,8.049 53.038,7.826 53.391,7.259 C53.798,6.607 54.235,5.598 54.235,5.598 C54.235,5.598 54.207,7.076 53.888,8.195 C53.598,9.216 53.014,9.888 53.014,9.888 C53.014,9.888 53.410,9.929 53.833,9.646 ZM34.330,16.456 C34.392,17.506 34.424,18.581 34.424,19.686 C34.424,20.372 34.411,21.052 34.388,21.725 L34.386,21.726 C34.386,21.726 34.386,21.726 34.386,21.726 L19.350,30.546 L12.020,16.518 C12.020,16.518 12.020,16.518 12.020,16.518 L12.018,16.515 C12.380,10.030 13.834,4.309 15.955,0.313 L15.956,0.315 C16.013,0.209 16.069,0.103 16.126,-0.000 L23.649,14.859 L33.414,9.214 C33.872,11.470 34.185,13.903 34.330,16.456 ZM14.819,37.999 L6.218,37.999 C2.361,33.853 -0.000,28.288 -0.000,22.170 C-0.000,12.079 6.420,3.494 15.386,0.296 C12.943,5.520 11.464,12.336 11.464,19.792 C11.464,26.651 12.717,32.965 14.819,37.999 ZM33.730,9.166 C33.992,9.308 34.280,9.478 34.597,9.683 C38.620,12.088 40.905,15.055 45.398,15.982 C45.928,17.932 46.212,19.984 46.212,22.104 C46.212,28.220 43.855,33.783 40.005,37.928 L31.420,37.928 C33.518,32.896 34.769,26.583 34.769,19.726 C34.769,16.007 34.401,12.448 33.730,9.166 ZM61.496,32.259 L62.229,32.259 L63.913,34.595 L65.633,32.259 L66.366,32.259 L64.279,34.960 L66.476,37.697 L65.743,37.697 L63.949,35.361 L62.009,37.697 L61.277,37.697 L63.583,34.996 L61.496,32.259 ZM68.152,30.763 L67.530,30.763 L67.530,30.069 L68.152,30.069 L68.152,30.763 ZM68.152,37.733 L67.530,37.733 L67.530,32.296 L68.152,32.296 L68.152,37.733 ZM89.805,33.792 L89.805,37.733 L89.219,37.733 L89.219,33.865 C89.243,32.989 88.755,32.564 87.755,32.588 L86.290,32.588 L86.290,37.733 L85.668,37.733 L85.668,33.609 C85.668,32.929 85.289,32.588 84.533,32.588 L82.775,32.588 L82.775,37.733 L82.153,37.733 L82.153,32.186 L87.938,32.186 C89.158,32.186 89.780,32.722 89.805,33.792 ZM93.752,34.303 L95.399,34.303 C95.375,33.111 94.814,32.527 93.715,32.551 C92.714,32.527 92.068,32.952 91.775,33.828 L91.189,33.828 C91.482,32.685 92.336,32.126 93.752,32.150 C95.240,32.150 95.985,32.795 95.985,34.084 L95.985,37.843 L93.459,37.843 C91.921,37.818 91.128,37.271 91.079,36.201 C91.103,34.936 91.994,34.303 93.752,34.303 ZM93.532,37.442 L95.399,37.442 L95.399,34.704 L93.715,34.704 C92.397,34.704 91.738,35.179 91.738,36.128 C91.738,37.004 92.336,37.442 93.532,37.442 ZM106.185,34.303 L107.833,34.303 C107.808,33.111 107.247,32.527 106.149,32.551 C105.148,32.527 104.501,32.952 104.208,33.828 L103.622,33.828 C103.915,32.685 104.769,32.126 106.185,32.150 C107.674,32.150 108.419,32.795 108.419,34.084 L108.419,37.843 L105.892,37.843 C104.355,37.818 103.561,37.271 103.513,36.201 C103.537,34.936 104.428,34.303 106.185,34.303 ZM105.966,37.442 L107.833,37.442 L107.833,34.704 L106.149,34.704 C104.831,34.704 104.172,35.179 104.172,36.128 C104.172,37.004 104.769,37.442 105.966,37.442 ZM112.475,32.150 L114.013,32.150 L114.013,29.558 L114.599,29.558 L114.599,37.806 L112.512,37.806 C110.681,37.782 109.753,36.846 109.729,34.996 C109.753,33.148 110.669,32.199 112.475,32.150 ZM112.695,37.405 L114.013,37.405 L114.013,32.551 L112.695,32.551 C111.181,32.600 110.412,33.415 110.388,34.996 C110.388,36.627 111.157,37.429 112.695,37.405 ZM118.619,34.303 L120.266,34.303 C120.242,33.111 119.681,32.527 118.582,32.551 C117.581,32.527 116.935,32.952 116.642,33.828 L116.056,33.828 C116.349,32.685 117.203,32.126 118.619,32.150 C120.107,32.150 120.852,32.795 120.852,34.084 L120.852,37.843 L118.326,37.843 C116.788,37.818 115.995,37.271 115.946,36.201 C115.970,34.936 116.862,34.303 118.619,34.303 ZM118.399,37.442 L120.266,37.442 L120.266,34.704 L118.582,34.704 C117.264,34.704 116.605,35.179 116.605,36.128 C116.605,37.004 117.203,37.442 118.399,37.442 ZM132.912,32.150 C134.523,32.247 135.377,33.196 135.475,34.996 C135.451,36.870 134.560,37.818 132.803,37.843 C131.142,37.745 130.264,36.834 130.166,35.106 C130.240,33.184 131.155,32.199 132.912,32.150 ZM132.839,37.442 C134.133,37.369 134.804,36.566 134.853,35.033 C134.780,33.476 134.108,32.649 132.839,32.551 C131.521,32.600 130.838,33.439 130.789,35.069 C130.838,36.554 131.521,37.344 132.839,37.442 ZM144.328,33.792 L144.328,37.733 L143.742,37.733 L143.742,33.865 C143.766,32.989 143.278,32.564 142.278,32.588 L140.813,32.588 L140.813,37.733 L140.191,37.733 L140.191,33.609 C140.191,32.929 139.812,32.588 139.056,32.588 L137.299,32.588 L137.299,37.733 L136.676,37.733 L136.676,32.186 L142.461,32.186 C143.681,32.186 144.304,32.722 144.328,33.792 Z" class="cls-1"/>
</svg>
